G04 #@! TF.FileFunction,Legend,Top*
%FSLAX46Y46*%
G04 Gerber Fmt 4.6, Leading zero omitted, Abs format (unit mm)*
G04 Created by KiCad (PCBNEW 4.0.7+dfsg1-1~bpo9+1) date Tue Apr 10 18:25:45 2018*
%MOMM*%
%LPD*%
G01*
G04 APERTURE LIST*
%ADD10C,0.100000*%
%ADD11C,0.300000*%
%ADD12C,0.200000*%
G04 APERTURE END LIST*
D10*
D11*
X179672857Y-87292857D02*
X179672857Y-87792857D01*
X180458571Y-87792857D02*
X178958571Y-87792857D01*
X178958571Y-87078571D01*
X180030000Y-86578572D02*
X180030000Y-85864286D01*
X180458571Y-86721429D02*
X178958571Y-86221429D01*
X180458571Y-85721429D01*
X180458571Y-85221429D02*
X178958571Y-85221429D01*
X180458571Y-83792857D02*
X180458571Y-84507143D01*
X178958571Y-84507143D01*
X154672857Y-87292857D02*
X154672857Y-87792857D01*
X155458571Y-87792857D02*
X153958571Y-87792857D01*
X153958571Y-87078571D01*
X155030000Y-86578572D02*
X155030000Y-85864286D01*
X155458571Y-86721429D02*
X153958571Y-86221429D01*
X155458571Y-85721429D01*
X155458571Y-85221429D02*
X153958571Y-85221429D01*
X155458571Y-83792857D02*
X155458571Y-84507143D01*
X153958571Y-84507143D01*
X129672857Y-87292857D02*
X129672857Y-87792857D01*
X130458571Y-87792857D02*
X128958571Y-87792857D01*
X128958571Y-87078571D01*
X130030000Y-86578572D02*
X130030000Y-85864286D01*
X130458571Y-86721429D02*
X128958571Y-86221429D01*
X130458571Y-85721429D01*
X130458571Y-85221429D02*
X128958571Y-85221429D01*
X130458571Y-83792857D02*
X130458571Y-84507143D01*
X128958571Y-84507143D01*
X188178571Y-93392857D02*
X188178571Y-94107143D01*
X186678571Y-94107143D01*
X188178571Y-92892857D02*
X187178571Y-92892857D01*
X186678571Y-92892857D02*
X186750000Y-92964286D01*
X186821429Y-92892857D01*
X186750000Y-92821429D01*
X186678571Y-92892857D01*
X186821429Y-92892857D01*
X187178571Y-91535714D02*
X188392857Y-91535714D01*
X188535714Y-91607143D01*
X188607143Y-91678571D01*
X188678571Y-91821428D01*
X188678571Y-92035714D01*
X188607143Y-92178571D01*
X188107143Y-91535714D02*
X188178571Y-91678571D01*
X188178571Y-91964285D01*
X188107143Y-92107143D01*
X188035714Y-92178571D01*
X187892857Y-92250000D01*
X187464286Y-92250000D01*
X187321429Y-92178571D01*
X187250000Y-92107143D01*
X187178571Y-91964285D01*
X187178571Y-91678571D01*
X187250000Y-91535714D01*
X188178571Y-90821428D02*
X186678571Y-90821428D01*
X188178571Y-90178571D02*
X187392857Y-90178571D01*
X187250000Y-90250000D01*
X187178571Y-90392857D01*
X187178571Y-90607142D01*
X187250000Y-90750000D01*
X187321429Y-90821428D01*
X187178571Y-89678571D02*
X187178571Y-89107142D01*
X186678571Y-89464285D02*
X187964286Y-89464285D01*
X188107143Y-89392857D01*
X188178571Y-89249999D01*
X188178571Y-89107142D01*
X188035714Y-86607142D02*
X188107143Y-86678571D01*
X188178571Y-86892857D01*
X188178571Y-87035714D01*
X188107143Y-87249999D01*
X187964286Y-87392857D01*
X187821429Y-87464285D01*
X187535714Y-87535714D01*
X187321429Y-87535714D01*
X187035714Y-87464285D01*
X186892857Y-87392857D01*
X186750000Y-87249999D01*
X186678571Y-87035714D01*
X186678571Y-86892857D01*
X186750000Y-86678571D01*
X186821429Y-86607142D01*
X188178571Y-85749999D02*
X188107143Y-85892857D01*
X188035714Y-85964285D01*
X187892857Y-86035714D01*
X187464286Y-86035714D01*
X187321429Y-85964285D01*
X187250000Y-85892857D01*
X187178571Y-85749999D01*
X187178571Y-85535714D01*
X187250000Y-85392857D01*
X187321429Y-85321428D01*
X187464286Y-85249999D01*
X187892857Y-85249999D01*
X188035714Y-85321428D01*
X188107143Y-85392857D01*
X188178571Y-85535714D01*
X188178571Y-85749999D01*
X187178571Y-84607142D02*
X188178571Y-84607142D01*
X187321429Y-84607142D02*
X187250000Y-84535714D01*
X187178571Y-84392856D01*
X187178571Y-84178571D01*
X187250000Y-84035714D01*
X187392857Y-83964285D01*
X188178571Y-83964285D01*
X187178571Y-83249999D02*
X188178571Y-83249999D01*
X187321429Y-83249999D02*
X187250000Y-83178571D01*
X187178571Y-83035713D01*
X187178571Y-82821428D01*
X187250000Y-82678571D01*
X187392857Y-82607142D01*
X188178571Y-82607142D01*
X188107143Y-81321428D02*
X188178571Y-81464285D01*
X188178571Y-81749999D01*
X188107143Y-81892856D01*
X187964286Y-81964285D01*
X187392857Y-81964285D01*
X187250000Y-81892856D01*
X187178571Y-81749999D01*
X187178571Y-81464285D01*
X187250000Y-81321428D01*
X187392857Y-81249999D01*
X187535714Y-81249999D01*
X187678571Y-81964285D01*
X188107143Y-79964285D02*
X188178571Y-80107142D01*
X188178571Y-80392856D01*
X188107143Y-80535714D01*
X188035714Y-80607142D01*
X187892857Y-80678571D01*
X187464286Y-80678571D01*
X187321429Y-80607142D01*
X187250000Y-80535714D01*
X187178571Y-80392856D01*
X187178571Y-80107142D01*
X187250000Y-79964285D01*
X187178571Y-79535714D02*
X187178571Y-78964285D01*
X186678571Y-79321428D02*
X187964286Y-79321428D01*
X188107143Y-79250000D01*
X188178571Y-79107142D01*
X188178571Y-78964285D01*
X188178571Y-78249999D02*
X188107143Y-78392857D01*
X188035714Y-78464285D01*
X187892857Y-78535714D01*
X187464286Y-78535714D01*
X187321429Y-78464285D01*
X187250000Y-78392857D01*
X187178571Y-78249999D01*
X187178571Y-78035714D01*
X187250000Y-77892857D01*
X187321429Y-77821428D01*
X187464286Y-77749999D01*
X187892857Y-77749999D01*
X188035714Y-77821428D01*
X188107143Y-77892857D01*
X188178571Y-78035714D01*
X188178571Y-78249999D01*
X188178571Y-77107142D02*
X187178571Y-77107142D01*
X187464286Y-77107142D02*
X187321429Y-77035714D01*
X187250000Y-76964285D01*
X187178571Y-76821428D01*
X187178571Y-76678571D01*
X163178571Y-93392857D02*
X163178571Y-94107143D01*
X161678571Y-94107143D01*
X163178571Y-92892857D02*
X162178571Y-92892857D01*
X161678571Y-92892857D02*
X161750000Y-92964286D01*
X161821429Y-92892857D01*
X161750000Y-92821429D01*
X161678571Y-92892857D01*
X161821429Y-92892857D01*
X162178571Y-91535714D02*
X163392857Y-91535714D01*
X163535714Y-91607143D01*
X163607143Y-91678571D01*
X163678571Y-91821428D01*
X163678571Y-92035714D01*
X163607143Y-92178571D01*
X163107143Y-91535714D02*
X163178571Y-91678571D01*
X163178571Y-91964285D01*
X163107143Y-92107143D01*
X163035714Y-92178571D01*
X162892857Y-92250000D01*
X162464286Y-92250000D01*
X162321429Y-92178571D01*
X162250000Y-92107143D01*
X162178571Y-91964285D01*
X162178571Y-91678571D01*
X162250000Y-91535714D01*
X163178571Y-90821428D02*
X161678571Y-90821428D01*
X163178571Y-90178571D02*
X162392857Y-90178571D01*
X162250000Y-90250000D01*
X162178571Y-90392857D01*
X162178571Y-90607142D01*
X162250000Y-90750000D01*
X162321429Y-90821428D01*
X162178571Y-89678571D02*
X162178571Y-89107142D01*
X161678571Y-89464285D02*
X162964286Y-89464285D01*
X163107143Y-89392857D01*
X163178571Y-89249999D01*
X163178571Y-89107142D01*
X163035714Y-86607142D02*
X163107143Y-86678571D01*
X163178571Y-86892857D01*
X163178571Y-87035714D01*
X163107143Y-87249999D01*
X162964286Y-87392857D01*
X162821429Y-87464285D01*
X162535714Y-87535714D01*
X162321429Y-87535714D01*
X162035714Y-87464285D01*
X161892857Y-87392857D01*
X161750000Y-87249999D01*
X161678571Y-87035714D01*
X161678571Y-86892857D01*
X161750000Y-86678571D01*
X161821429Y-86607142D01*
X163178571Y-85749999D02*
X163107143Y-85892857D01*
X163035714Y-85964285D01*
X162892857Y-86035714D01*
X162464286Y-86035714D01*
X162321429Y-85964285D01*
X162250000Y-85892857D01*
X162178571Y-85749999D01*
X162178571Y-85535714D01*
X162250000Y-85392857D01*
X162321429Y-85321428D01*
X162464286Y-85249999D01*
X162892857Y-85249999D01*
X163035714Y-85321428D01*
X163107143Y-85392857D01*
X163178571Y-85535714D01*
X163178571Y-85749999D01*
X162178571Y-84607142D02*
X163178571Y-84607142D01*
X162321429Y-84607142D02*
X162250000Y-84535714D01*
X162178571Y-84392856D01*
X162178571Y-84178571D01*
X162250000Y-84035714D01*
X162392857Y-83964285D01*
X163178571Y-83964285D01*
X162178571Y-83249999D02*
X163178571Y-83249999D01*
X162321429Y-83249999D02*
X162250000Y-83178571D01*
X162178571Y-83035713D01*
X162178571Y-82821428D01*
X162250000Y-82678571D01*
X162392857Y-82607142D01*
X163178571Y-82607142D01*
X163107143Y-81321428D02*
X163178571Y-81464285D01*
X163178571Y-81749999D01*
X163107143Y-81892856D01*
X162964286Y-81964285D01*
X162392857Y-81964285D01*
X162250000Y-81892856D01*
X162178571Y-81749999D01*
X162178571Y-81464285D01*
X162250000Y-81321428D01*
X162392857Y-81249999D01*
X162535714Y-81249999D01*
X162678571Y-81964285D01*
X163107143Y-79964285D02*
X163178571Y-80107142D01*
X163178571Y-80392856D01*
X163107143Y-80535714D01*
X163035714Y-80607142D01*
X162892857Y-80678571D01*
X162464286Y-80678571D01*
X162321429Y-80607142D01*
X162250000Y-80535714D01*
X162178571Y-80392856D01*
X162178571Y-80107142D01*
X162250000Y-79964285D01*
X162178571Y-79535714D02*
X162178571Y-78964285D01*
X161678571Y-79321428D02*
X162964286Y-79321428D01*
X163107143Y-79250000D01*
X163178571Y-79107142D01*
X163178571Y-78964285D01*
X163178571Y-78249999D02*
X163107143Y-78392857D01*
X163035714Y-78464285D01*
X162892857Y-78535714D01*
X162464286Y-78535714D01*
X162321429Y-78464285D01*
X162250000Y-78392857D01*
X162178571Y-78249999D01*
X162178571Y-78035714D01*
X162250000Y-77892857D01*
X162321429Y-77821428D01*
X162464286Y-77749999D01*
X162892857Y-77749999D01*
X163035714Y-77821428D01*
X163107143Y-77892857D01*
X163178571Y-78035714D01*
X163178571Y-78249999D01*
X163178571Y-77107142D02*
X162178571Y-77107142D01*
X162464286Y-77107142D02*
X162321429Y-77035714D01*
X162250000Y-76964285D01*
X162178571Y-76821428D01*
X162178571Y-76678571D01*
X138178571Y-93392857D02*
X138178571Y-94107143D01*
X136678571Y-94107143D01*
X138178571Y-92892857D02*
X137178571Y-92892857D01*
X136678571Y-92892857D02*
X136750000Y-92964286D01*
X136821429Y-92892857D01*
X136750000Y-92821429D01*
X136678571Y-92892857D01*
X136821429Y-92892857D01*
X137178571Y-91535714D02*
X138392857Y-91535714D01*
X138535714Y-91607143D01*
X138607143Y-91678571D01*
X138678571Y-91821428D01*
X138678571Y-92035714D01*
X138607143Y-92178571D01*
X138107143Y-91535714D02*
X138178571Y-91678571D01*
X138178571Y-91964285D01*
X138107143Y-92107143D01*
X138035714Y-92178571D01*
X137892857Y-92250000D01*
X137464286Y-92250000D01*
X137321429Y-92178571D01*
X137250000Y-92107143D01*
X137178571Y-91964285D01*
X137178571Y-91678571D01*
X137250000Y-91535714D01*
X138178571Y-90821428D02*
X136678571Y-90821428D01*
X138178571Y-90178571D02*
X137392857Y-90178571D01*
X137250000Y-90250000D01*
X137178571Y-90392857D01*
X137178571Y-90607142D01*
X137250000Y-90750000D01*
X137321429Y-90821428D01*
X137178571Y-89678571D02*
X137178571Y-89107142D01*
X136678571Y-89464285D02*
X137964286Y-89464285D01*
X138107143Y-89392857D01*
X138178571Y-89249999D01*
X138178571Y-89107142D01*
X138035714Y-86607142D02*
X138107143Y-86678571D01*
X138178571Y-86892857D01*
X138178571Y-87035714D01*
X138107143Y-87249999D01*
X137964286Y-87392857D01*
X137821429Y-87464285D01*
X137535714Y-87535714D01*
X137321429Y-87535714D01*
X137035714Y-87464285D01*
X136892857Y-87392857D01*
X136750000Y-87249999D01*
X136678571Y-87035714D01*
X136678571Y-86892857D01*
X136750000Y-86678571D01*
X136821429Y-86607142D01*
X138178571Y-85749999D02*
X138107143Y-85892857D01*
X138035714Y-85964285D01*
X137892857Y-86035714D01*
X137464286Y-86035714D01*
X137321429Y-85964285D01*
X137250000Y-85892857D01*
X137178571Y-85749999D01*
X137178571Y-85535714D01*
X137250000Y-85392857D01*
X137321429Y-85321428D01*
X137464286Y-85249999D01*
X137892857Y-85249999D01*
X138035714Y-85321428D01*
X138107143Y-85392857D01*
X138178571Y-85535714D01*
X138178571Y-85749999D01*
X137178571Y-84607142D02*
X138178571Y-84607142D01*
X137321429Y-84607142D02*
X137250000Y-84535714D01*
X137178571Y-84392856D01*
X137178571Y-84178571D01*
X137250000Y-84035714D01*
X137392857Y-83964285D01*
X138178571Y-83964285D01*
X137178571Y-83249999D02*
X138178571Y-83249999D01*
X137321429Y-83249999D02*
X137250000Y-83178571D01*
X137178571Y-83035713D01*
X137178571Y-82821428D01*
X137250000Y-82678571D01*
X137392857Y-82607142D01*
X138178571Y-82607142D01*
X138107143Y-81321428D02*
X138178571Y-81464285D01*
X138178571Y-81749999D01*
X138107143Y-81892856D01*
X137964286Y-81964285D01*
X137392857Y-81964285D01*
X137250000Y-81892856D01*
X137178571Y-81749999D01*
X137178571Y-81464285D01*
X137250000Y-81321428D01*
X137392857Y-81249999D01*
X137535714Y-81249999D01*
X137678571Y-81964285D01*
X138107143Y-79964285D02*
X138178571Y-80107142D01*
X138178571Y-80392856D01*
X138107143Y-80535714D01*
X138035714Y-80607142D01*
X137892857Y-80678571D01*
X137464286Y-80678571D01*
X137321429Y-80607142D01*
X137250000Y-80535714D01*
X137178571Y-80392856D01*
X137178571Y-80107142D01*
X137250000Y-79964285D01*
X137178571Y-79535714D02*
X137178571Y-78964285D01*
X136678571Y-79321428D02*
X137964286Y-79321428D01*
X138107143Y-79250000D01*
X138178571Y-79107142D01*
X138178571Y-78964285D01*
X138178571Y-78249999D02*
X138107143Y-78392857D01*
X138035714Y-78464285D01*
X137892857Y-78535714D01*
X137464286Y-78535714D01*
X137321429Y-78464285D01*
X137250000Y-78392857D01*
X137178571Y-78249999D01*
X137178571Y-78035714D01*
X137250000Y-77892857D01*
X137321429Y-77821428D01*
X137464286Y-77749999D01*
X137892857Y-77749999D01*
X138035714Y-77821428D01*
X138107143Y-77892857D01*
X138178571Y-78035714D01*
X138178571Y-78249999D01*
X138178571Y-77107142D02*
X137178571Y-77107142D01*
X137464286Y-77107142D02*
X137321429Y-77035714D01*
X137250000Y-76964285D01*
X137178571Y-76821428D01*
X137178571Y-76678571D01*
D12*
X187500000Y-74500000D02*
X187500000Y-76250000D01*
X162500000Y-74500000D02*
X162500000Y-76250000D01*
X137500000Y-74500000D02*
X137500000Y-76250000D01*
X195000000Y-74500000D02*
X195000000Y-73750000D01*
X170000000Y-74500000D02*
X170000000Y-73750000D01*
X145000000Y-74500000D02*
X145000000Y-73750000D01*
X190000000Y-74500000D02*
X190000000Y-73750000D01*
X165000000Y-74500000D02*
X165000000Y-73750000D01*
X140000000Y-74500000D02*
X140000000Y-73750000D01*
X190000000Y-74500000D02*
X195000000Y-74500000D01*
X165000000Y-74500000D02*
X170000000Y-74500000D01*
X140000000Y-74500000D02*
X145000000Y-74500000D01*
X180000000Y-73750000D02*
X180000000Y-74500000D01*
X155000000Y-73750000D02*
X155000000Y-74500000D01*
X130000000Y-73750000D02*
X130000000Y-74500000D01*
X180000000Y-74500000D02*
X185000000Y-74500000D01*
X155000000Y-74500000D02*
X160000000Y-74500000D01*
X130000000Y-74500000D02*
X135000000Y-74500000D01*
D11*
X179028571Y-73428571D02*
X179028571Y-72571428D01*
X180528571Y-72999999D02*
X179028571Y-72999999D01*
X180528571Y-71214285D02*
X179814286Y-71714285D01*
X180528571Y-72071428D02*
X179028571Y-72071428D01*
X179028571Y-71500000D01*
X179100000Y-71357142D01*
X179171429Y-71285714D01*
X179314286Y-71214285D01*
X179528571Y-71214285D01*
X179671429Y-71285714D01*
X179742857Y-71357142D01*
X179814286Y-71500000D01*
X179814286Y-72071428D01*
X179957143Y-70571428D02*
X179957143Y-69428571D01*
X180528571Y-67571428D02*
X179028571Y-67571428D01*
X179028571Y-67214285D01*
X179100000Y-67000000D01*
X179242857Y-66857142D01*
X179385714Y-66785714D01*
X179671429Y-66714285D01*
X179885714Y-66714285D01*
X180171429Y-66785714D01*
X180314286Y-66857142D01*
X180457143Y-67000000D01*
X180528571Y-67214285D01*
X180528571Y-67571428D01*
X179028571Y-66285714D02*
X179028571Y-65428571D01*
X180528571Y-65857142D02*
X179028571Y-65857142D01*
X179957143Y-64928571D02*
X179957143Y-63785714D01*
X184128571Y-73428571D02*
X184128571Y-72571428D01*
X185628571Y-72999999D02*
X184128571Y-72999999D01*
X185628571Y-71214285D02*
X184914286Y-71714285D01*
X185628571Y-72071428D02*
X184128571Y-72071428D01*
X184128571Y-71500000D01*
X184200000Y-71357142D01*
X184271429Y-71285714D01*
X184414286Y-71214285D01*
X184628571Y-71214285D01*
X184771429Y-71285714D01*
X184842857Y-71357142D01*
X184914286Y-71500000D01*
X184914286Y-72071428D01*
X185057143Y-70571428D02*
X185057143Y-69428571D01*
X185628571Y-70000000D02*
X184485714Y-70000000D01*
X185628571Y-67571428D02*
X184128571Y-67571428D01*
X184128571Y-67214285D01*
X184200000Y-67000000D01*
X184342857Y-66857142D01*
X184485714Y-66785714D01*
X184771429Y-66714285D01*
X184985714Y-66714285D01*
X185271429Y-66785714D01*
X185414286Y-66857142D01*
X185557143Y-67000000D01*
X185628571Y-67214285D01*
X185628571Y-67571428D01*
X184128571Y-66285714D02*
X184128571Y-65428571D01*
X185628571Y-65857142D02*
X184128571Y-65857142D01*
X185057143Y-64928571D02*
X185057143Y-63785714D01*
X189228571Y-72785714D02*
X189228571Y-72642857D01*
X189300000Y-72500000D01*
X189371429Y-72428571D01*
X189514286Y-72357142D01*
X189800000Y-72285714D01*
X190157143Y-72285714D01*
X190442857Y-72357142D01*
X190585714Y-72428571D01*
X190657143Y-72500000D01*
X190728571Y-72642857D01*
X190728571Y-72785714D01*
X190657143Y-72928571D01*
X190585714Y-73000000D01*
X190442857Y-73071428D01*
X190157143Y-73142857D01*
X189800000Y-73142857D01*
X189514286Y-73071428D01*
X189371429Y-73000000D01*
X189300000Y-72928571D01*
X189228571Y-72785714D01*
X189228571Y-71000000D02*
X189228571Y-71285714D01*
X189300000Y-71428571D01*
X189371429Y-71500000D01*
X189585714Y-71642857D01*
X189871429Y-71714286D01*
X190442857Y-71714286D01*
X190585714Y-71642857D01*
X190657143Y-71571429D01*
X190728571Y-71428571D01*
X190728571Y-71142857D01*
X190657143Y-71000000D01*
X190585714Y-70928571D01*
X190442857Y-70857143D01*
X190085714Y-70857143D01*
X189942857Y-70928571D01*
X189871429Y-71000000D01*
X189800000Y-71142857D01*
X189800000Y-71428571D01*
X189871429Y-71571429D01*
X189942857Y-71642857D01*
X190085714Y-71714286D01*
X189228571Y-70428572D02*
X190728571Y-69928572D01*
X189228571Y-69428572D01*
X189300000Y-67000001D02*
X189228571Y-67142858D01*
X189228571Y-67357144D01*
X189300000Y-67571429D01*
X189442857Y-67714287D01*
X189585714Y-67785715D01*
X189871429Y-67857144D01*
X190085714Y-67857144D01*
X190371429Y-67785715D01*
X190514286Y-67714287D01*
X190657143Y-67571429D01*
X190728571Y-67357144D01*
X190728571Y-67214287D01*
X190657143Y-67000001D01*
X190585714Y-66928572D01*
X190085714Y-66928572D01*
X190085714Y-67214287D01*
X190728571Y-66285715D02*
X189228571Y-66285715D01*
X190728571Y-65428572D01*
X189228571Y-65428572D01*
X190728571Y-64714286D02*
X189228571Y-64714286D01*
X189228571Y-64357143D01*
X189300000Y-64142858D01*
X189442857Y-64000000D01*
X189585714Y-63928572D01*
X189871429Y-63857143D01*
X190085714Y-63857143D01*
X190371429Y-63928572D01*
X190514286Y-64000000D01*
X190657143Y-64142858D01*
X190728571Y-64357143D01*
X190728571Y-64714286D01*
X194328571Y-73214285D02*
X194328571Y-72285714D01*
X194900000Y-72785714D01*
X194900000Y-72571428D01*
X194971429Y-72428571D01*
X195042857Y-72357142D01*
X195185714Y-72285714D01*
X195542857Y-72285714D01*
X195685714Y-72357142D01*
X195757143Y-72428571D01*
X195828571Y-72571428D01*
X195828571Y-73000000D01*
X195757143Y-73142857D01*
X195685714Y-73214285D01*
X194328571Y-71000000D02*
X194328571Y-71285714D01*
X194400000Y-71428571D01*
X194471429Y-71500000D01*
X194685714Y-71642857D01*
X194971429Y-71714286D01*
X195542857Y-71714286D01*
X195685714Y-71642857D01*
X195757143Y-71571429D01*
X195828571Y-71428571D01*
X195828571Y-71142857D01*
X195757143Y-71000000D01*
X195685714Y-70928571D01*
X195542857Y-70857143D01*
X195185714Y-70857143D01*
X195042857Y-70928571D01*
X194971429Y-71000000D01*
X194900000Y-71142857D01*
X194900000Y-71428571D01*
X194971429Y-71571429D01*
X195042857Y-71642857D01*
X195185714Y-71714286D01*
X194328571Y-70428572D02*
X195828571Y-69928572D01*
X194328571Y-69428572D01*
X194400000Y-67000001D02*
X194328571Y-67142858D01*
X194328571Y-67357144D01*
X194400000Y-67571429D01*
X194542857Y-67714287D01*
X194685714Y-67785715D01*
X194971429Y-67857144D01*
X195185714Y-67857144D01*
X195471429Y-67785715D01*
X195614286Y-67714287D01*
X195757143Y-67571429D01*
X195828571Y-67357144D01*
X195828571Y-67214287D01*
X195757143Y-67000001D01*
X195685714Y-66928572D01*
X195185714Y-66928572D01*
X195185714Y-67214287D01*
X195828571Y-66285715D02*
X194328571Y-66285715D01*
X195828571Y-65428572D01*
X194328571Y-65428572D01*
X195828571Y-64714286D02*
X194328571Y-64714286D01*
X194328571Y-64357143D01*
X194400000Y-64142858D01*
X194542857Y-64000000D01*
X194685714Y-63928572D01*
X194971429Y-63857143D01*
X195185714Y-63857143D01*
X195471429Y-63928572D01*
X195614286Y-64000000D01*
X195757143Y-64142858D01*
X195828571Y-64357143D01*
X195828571Y-64714286D01*
X154028571Y-73428571D02*
X154028571Y-72571428D01*
X155528571Y-72999999D02*
X154028571Y-72999999D01*
X155528571Y-71214285D02*
X154814286Y-71714285D01*
X155528571Y-72071428D02*
X154028571Y-72071428D01*
X154028571Y-71500000D01*
X154100000Y-71357142D01*
X154171429Y-71285714D01*
X154314286Y-71214285D01*
X154528571Y-71214285D01*
X154671429Y-71285714D01*
X154742857Y-71357142D01*
X154814286Y-71500000D01*
X154814286Y-72071428D01*
X154957143Y-70571428D02*
X154957143Y-69428571D01*
X155528571Y-67571428D02*
X154028571Y-67571428D01*
X154028571Y-67214285D01*
X154100000Y-67000000D01*
X154242857Y-66857142D01*
X154385714Y-66785714D01*
X154671429Y-66714285D01*
X154885714Y-66714285D01*
X155171429Y-66785714D01*
X155314286Y-66857142D01*
X155457143Y-67000000D01*
X155528571Y-67214285D01*
X155528571Y-67571428D01*
X154028571Y-66285714D02*
X154028571Y-65428571D01*
X155528571Y-65857142D02*
X154028571Y-65857142D01*
X154957143Y-64928571D02*
X154957143Y-63785714D01*
X159128571Y-73428571D02*
X159128571Y-72571428D01*
X160628571Y-72999999D02*
X159128571Y-72999999D01*
X160628571Y-71214285D02*
X159914286Y-71714285D01*
X160628571Y-72071428D02*
X159128571Y-72071428D01*
X159128571Y-71500000D01*
X159200000Y-71357142D01*
X159271429Y-71285714D01*
X159414286Y-71214285D01*
X159628571Y-71214285D01*
X159771429Y-71285714D01*
X159842857Y-71357142D01*
X159914286Y-71500000D01*
X159914286Y-72071428D01*
X160057143Y-70571428D02*
X160057143Y-69428571D01*
X160628571Y-70000000D02*
X159485714Y-70000000D01*
X160628571Y-67571428D02*
X159128571Y-67571428D01*
X159128571Y-67214285D01*
X159200000Y-67000000D01*
X159342857Y-66857142D01*
X159485714Y-66785714D01*
X159771429Y-66714285D01*
X159985714Y-66714285D01*
X160271429Y-66785714D01*
X160414286Y-66857142D01*
X160557143Y-67000000D01*
X160628571Y-67214285D01*
X160628571Y-67571428D01*
X159128571Y-66285714D02*
X159128571Y-65428571D01*
X160628571Y-65857142D02*
X159128571Y-65857142D01*
X160057143Y-64928571D02*
X160057143Y-63785714D01*
X164228571Y-72785714D02*
X164228571Y-72642857D01*
X164300000Y-72500000D01*
X164371429Y-72428571D01*
X164514286Y-72357142D01*
X164800000Y-72285714D01*
X165157143Y-72285714D01*
X165442857Y-72357142D01*
X165585714Y-72428571D01*
X165657143Y-72500000D01*
X165728571Y-72642857D01*
X165728571Y-72785714D01*
X165657143Y-72928571D01*
X165585714Y-73000000D01*
X165442857Y-73071428D01*
X165157143Y-73142857D01*
X164800000Y-73142857D01*
X164514286Y-73071428D01*
X164371429Y-73000000D01*
X164300000Y-72928571D01*
X164228571Y-72785714D01*
X164228571Y-71000000D02*
X164228571Y-71285714D01*
X164300000Y-71428571D01*
X164371429Y-71500000D01*
X164585714Y-71642857D01*
X164871429Y-71714286D01*
X165442857Y-71714286D01*
X165585714Y-71642857D01*
X165657143Y-71571429D01*
X165728571Y-71428571D01*
X165728571Y-71142857D01*
X165657143Y-71000000D01*
X165585714Y-70928571D01*
X165442857Y-70857143D01*
X165085714Y-70857143D01*
X164942857Y-70928571D01*
X164871429Y-71000000D01*
X164800000Y-71142857D01*
X164800000Y-71428571D01*
X164871429Y-71571429D01*
X164942857Y-71642857D01*
X165085714Y-71714286D01*
X164228571Y-70428572D02*
X165728571Y-69928572D01*
X164228571Y-69428572D01*
X164300000Y-67000001D02*
X164228571Y-67142858D01*
X164228571Y-67357144D01*
X164300000Y-67571429D01*
X164442857Y-67714287D01*
X164585714Y-67785715D01*
X164871429Y-67857144D01*
X165085714Y-67857144D01*
X165371429Y-67785715D01*
X165514286Y-67714287D01*
X165657143Y-67571429D01*
X165728571Y-67357144D01*
X165728571Y-67214287D01*
X165657143Y-67000001D01*
X165585714Y-66928572D01*
X165085714Y-66928572D01*
X165085714Y-67214287D01*
X165728571Y-66285715D02*
X164228571Y-66285715D01*
X165728571Y-65428572D01*
X164228571Y-65428572D01*
X165728571Y-64714286D02*
X164228571Y-64714286D01*
X164228571Y-64357143D01*
X164300000Y-64142858D01*
X164442857Y-64000000D01*
X164585714Y-63928572D01*
X164871429Y-63857143D01*
X165085714Y-63857143D01*
X165371429Y-63928572D01*
X165514286Y-64000000D01*
X165657143Y-64142858D01*
X165728571Y-64357143D01*
X165728571Y-64714286D01*
X169328571Y-73214285D02*
X169328571Y-72285714D01*
X169900000Y-72785714D01*
X169900000Y-72571428D01*
X169971429Y-72428571D01*
X170042857Y-72357142D01*
X170185714Y-72285714D01*
X170542857Y-72285714D01*
X170685714Y-72357142D01*
X170757143Y-72428571D01*
X170828571Y-72571428D01*
X170828571Y-73000000D01*
X170757143Y-73142857D01*
X170685714Y-73214285D01*
X169328571Y-71000000D02*
X169328571Y-71285714D01*
X169400000Y-71428571D01*
X169471429Y-71500000D01*
X169685714Y-71642857D01*
X169971429Y-71714286D01*
X170542857Y-71714286D01*
X170685714Y-71642857D01*
X170757143Y-71571429D01*
X170828571Y-71428571D01*
X170828571Y-71142857D01*
X170757143Y-71000000D01*
X170685714Y-70928571D01*
X170542857Y-70857143D01*
X170185714Y-70857143D01*
X170042857Y-70928571D01*
X169971429Y-71000000D01*
X169900000Y-71142857D01*
X169900000Y-71428571D01*
X169971429Y-71571429D01*
X170042857Y-71642857D01*
X170185714Y-71714286D01*
X169328571Y-70428572D02*
X170828571Y-69928572D01*
X169328571Y-69428572D01*
X169400000Y-67000001D02*
X169328571Y-67142858D01*
X169328571Y-67357144D01*
X169400000Y-67571429D01*
X169542857Y-67714287D01*
X169685714Y-67785715D01*
X169971429Y-67857144D01*
X170185714Y-67857144D01*
X170471429Y-67785715D01*
X170614286Y-67714287D01*
X170757143Y-67571429D01*
X170828571Y-67357144D01*
X170828571Y-67214287D01*
X170757143Y-67000001D01*
X170685714Y-66928572D01*
X170185714Y-66928572D01*
X170185714Y-67214287D01*
X170828571Y-66285715D02*
X169328571Y-66285715D01*
X170828571Y-65428572D01*
X169328571Y-65428572D01*
X170828571Y-64714286D02*
X169328571Y-64714286D01*
X169328571Y-64357143D01*
X169400000Y-64142858D01*
X169542857Y-64000000D01*
X169685714Y-63928572D01*
X169971429Y-63857143D01*
X170185714Y-63857143D01*
X170471429Y-63928572D01*
X170614286Y-64000000D01*
X170757143Y-64142858D01*
X170828571Y-64357143D01*
X170828571Y-64714286D01*
X129028571Y-73428571D02*
X129028571Y-72571428D01*
X130528571Y-72999999D02*
X129028571Y-72999999D01*
X130528571Y-71214285D02*
X129814286Y-71714285D01*
X130528571Y-72071428D02*
X129028571Y-72071428D01*
X129028571Y-71500000D01*
X129100000Y-71357142D01*
X129171429Y-71285714D01*
X129314286Y-71214285D01*
X129528571Y-71214285D01*
X129671429Y-71285714D01*
X129742857Y-71357142D01*
X129814286Y-71500000D01*
X129814286Y-72071428D01*
X129957143Y-70571428D02*
X129957143Y-69428571D01*
X130528571Y-67571428D02*
X129028571Y-67571428D01*
X129028571Y-67214285D01*
X129100000Y-67000000D01*
X129242857Y-66857142D01*
X129385714Y-66785714D01*
X129671429Y-66714285D01*
X129885714Y-66714285D01*
X130171429Y-66785714D01*
X130314286Y-66857142D01*
X130457143Y-67000000D01*
X130528571Y-67214285D01*
X130528571Y-67571428D01*
X129028571Y-66285714D02*
X129028571Y-65428571D01*
X130528571Y-65857142D02*
X129028571Y-65857142D01*
X129957143Y-64928571D02*
X129957143Y-63785714D01*
X134128571Y-73428571D02*
X134128571Y-72571428D01*
X135628571Y-72999999D02*
X134128571Y-72999999D01*
X135628571Y-71214285D02*
X134914286Y-71714285D01*
X135628571Y-72071428D02*
X134128571Y-72071428D01*
X134128571Y-71500000D01*
X134200000Y-71357142D01*
X134271429Y-71285714D01*
X134414286Y-71214285D01*
X134628571Y-71214285D01*
X134771429Y-71285714D01*
X134842857Y-71357142D01*
X134914286Y-71500000D01*
X134914286Y-72071428D01*
X135057143Y-70571428D02*
X135057143Y-69428571D01*
X135628571Y-70000000D02*
X134485714Y-70000000D01*
X135628571Y-67571428D02*
X134128571Y-67571428D01*
X134128571Y-67214285D01*
X134200000Y-67000000D01*
X134342857Y-66857142D01*
X134485714Y-66785714D01*
X134771429Y-66714285D01*
X134985714Y-66714285D01*
X135271429Y-66785714D01*
X135414286Y-66857142D01*
X135557143Y-67000000D01*
X135628571Y-67214285D01*
X135628571Y-67571428D01*
X134128571Y-66285714D02*
X134128571Y-65428571D01*
X135628571Y-65857142D02*
X134128571Y-65857142D01*
X135057143Y-64928571D02*
X135057143Y-63785714D01*
X139228571Y-72785714D02*
X139228571Y-72642857D01*
X139300000Y-72500000D01*
X139371429Y-72428571D01*
X139514286Y-72357142D01*
X139800000Y-72285714D01*
X140157143Y-72285714D01*
X140442857Y-72357142D01*
X140585714Y-72428571D01*
X140657143Y-72500000D01*
X140728571Y-72642857D01*
X140728571Y-72785714D01*
X140657143Y-72928571D01*
X140585714Y-73000000D01*
X140442857Y-73071428D01*
X140157143Y-73142857D01*
X139800000Y-73142857D01*
X139514286Y-73071428D01*
X139371429Y-73000000D01*
X139300000Y-72928571D01*
X139228571Y-72785714D01*
X139228571Y-71000000D02*
X139228571Y-71285714D01*
X139300000Y-71428571D01*
X139371429Y-71500000D01*
X139585714Y-71642857D01*
X139871429Y-71714286D01*
X140442857Y-71714286D01*
X140585714Y-71642857D01*
X140657143Y-71571429D01*
X140728571Y-71428571D01*
X140728571Y-71142857D01*
X140657143Y-71000000D01*
X140585714Y-70928571D01*
X140442857Y-70857143D01*
X140085714Y-70857143D01*
X139942857Y-70928571D01*
X139871429Y-71000000D01*
X139800000Y-71142857D01*
X139800000Y-71428571D01*
X139871429Y-71571429D01*
X139942857Y-71642857D01*
X140085714Y-71714286D01*
X139228571Y-70428572D02*
X140728571Y-69928572D01*
X139228571Y-69428572D01*
X139300000Y-67000001D02*
X139228571Y-67142858D01*
X139228571Y-67357144D01*
X139300000Y-67571429D01*
X139442857Y-67714287D01*
X139585714Y-67785715D01*
X139871429Y-67857144D01*
X140085714Y-67857144D01*
X140371429Y-67785715D01*
X140514286Y-67714287D01*
X140657143Y-67571429D01*
X140728571Y-67357144D01*
X140728571Y-67214287D01*
X140657143Y-67000001D01*
X140585714Y-66928572D01*
X140085714Y-66928572D01*
X140085714Y-67214287D01*
X140728571Y-66285715D02*
X139228571Y-66285715D01*
X140728571Y-65428572D01*
X139228571Y-65428572D01*
X140728571Y-64714286D02*
X139228571Y-64714286D01*
X139228571Y-64357143D01*
X139300000Y-64142858D01*
X139442857Y-64000000D01*
X139585714Y-63928572D01*
X139871429Y-63857143D01*
X140085714Y-63857143D01*
X140371429Y-63928572D01*
X140514286Y-64000000D01*
X140657143Y-64142858D01*
X140728571Y-64357143D01*
X140728571Y-64714286D01*
X144328571Y-73214285D02*
X144328571Y-72285714D01*
X144900000Y-72785714D01*
X144900000Y-72571428D01*
X144971429Y-72428571D01*
X145042857Y-72357142D01*
X145185714Y-72285714D01*
X145542857Y-72285714D01*
X145685714Y-72357142D01*
X145757143Y-72428571D01*
X145828571Y-72571428D01*
X145828571Y-73000000D01*
X145757143Y-73142857D01*
X145685714Y-73214285D01*
X144328571Y-71000000D02*
X144328571Y-71285714D01*
X144400000Y-71428571D01*
X144471429Y-71500000D01*
X144685714Y-71642857D01*
X144971429Y-71714286D01*
X145542857Y-71714286D01*
X145685714Y-71642857D01*
X145757143Y-71571429D01*
X145828571Y-71428571D01*
X145828571Y-71142857D01*
X145757143Y-71000000D01*
X145685714Y-70928571D01*
X145542857Y-70857143D01*
X145185714Y-70857143D01*
X145042857Y-70928571D01*
X144971429Y-71000000D01*
X144900000Y-71142857D01*
X144900000Y-71428571D01*
X144971429Y-71571429D01*
X145042857Y-71642857D01*
X145185714Y-71714286D01*
X144328571Y-70428572D02*
X145828571Y-69928572D01*
X144328571Y-69428572D01*
X144400000Y-67000001D02*
X144328571Y-67142858D01*
X144328571Y-67357144D01*
X144400000Y-67571429D01*
X144542857Y-67714287D01*
X144685714Y-67785715D01*
X144971429Y-67857144D01*
X145185714Y-67857144D01*
X145471429Y-67785715D01*
X145614286Y-67714287D01*
X145757143Y-67571429D01*
X145828571Y-67357144D01*
X145828571Y-67214287D01*
X145757143Y-67000001D01*
X145685714Y-66928572D01*
X145185714Y-66928572D01*
X145185714Y-67214287D01*
X145828571Y-66285715D02*
X144328571Y-66285715D01*
X145828571Y-65428572D01*
X144328571Y-65428572D01*
X145828571Y-64714286D02*
X144328571Y-64714286D01*
X144328571Y-64357143D01*
X144400000Y-64142858D01*
X144542857Y-64000000D01*
X144685714Y-63928572D01*
X144971429Y-63857143D01*
X145185714Y-63857143D01*
X145471429Y-63928572D01*
X145614286Y-64000000D01*
X145757143Y-64142858D01*
X145828571Y-64357143D01*
X145828571Y-64714286D01*
D12*
X185000000Y-74500000D02*
X185000000Y-73750000D01*
X160000000Y-74500000D02*
X160000000Y-73750000D01*
X135000000Y-74500000D02*
X135000000Y-73750000D01*
X185000000Y-74500000D02*
X190000000Y-74500000D01*
X160000000Y-74500000D02*
X165000000Y-74500000D01*
X135000000Y-74500000D02*
X140000000Y-74500000D01*
X186700000Y-114000000D02*
X189300000Y-114000000D01*
X161700000Y-114000000D02*
X164300000Y-114000000D01*
X136700000Y-114000000D02*
X139300000Y-114000000D01*
X194000000Y-114000000D02*
X194000000Y-117100000D01*
X169000000Y-114000000D02*
X169000000Y-117100000D01*
X144000000Y-114000000D02*
X144000000Y-117100000D01*
D11*
X193078571Y-121557142D02*
X193078571Y-120628571D01*
X193650000Y-121128571D01*
X193650000Y-120914285D01*
X193721429Y-120771428D01*
X193792857Y-120699999D01*
X193935714Y-120628571D01*
X194292857Y-120628571D01*
X194435714Y-120699999D01*
X194507143Y-120771428D01*
X194578571Y-120914285D01*
X194578571Y-121342857D01*
X194507143Y-121485714D01*
X194435714Y-121557142D01*
X193078571Y-119342857D02*
X193078571Y-119628571D01*
X193150000Y-119771428D01*
X193221429Y-119842857D01*
X193435714Y-119985714D01*
X193721429Y-120057143D01*
X194292857Y-120057143D01*
X194435714Y-119985714D01*
X194507143Y-119914286D01*
X194578571Y-119771428D01*
X194578571Y-119485714D01*
X194507143Y-119342857D01*
X194435714Y-119271428D01*
X194292857Y-119200000D01*
X193935714Y-119200000D01*
X193792857Y-119271428D01*
X193721429Y-119342857D01*
X193650000Y-119485714D01*
X193650000Y-119771428D01*
X193721429Y-119914286D01*
X193792857Y-119985714D01*
X193935714Y-120057143D01*
X193078571Y-118771429D02*
X194578571Y-118271429D01*
X193078571Y-117771429D01*
X168078571Y-121557142D02*
X168078571Y-120628571D01*
X168650000Y-121128571D01*
X168650000Y-120914285D01*
X168721429Y-120771428D01*
X168792857Y-120699999D01*
X168935714Y-120628571D01*
X169292857Y-120628571D01*
X169435714Y-120699999D01*
X169507143Y-120771428D01*
X169578571Y-120914285D01*
X169578571Y-121342857D01*
X169507143Y-121485714D01*
X169435714Y-121557142D01*
X168078571Y-119342857D02*
X168078571Y-119628571D01*
X168150000Y-119771428D01*
X168221429Y-119842857D01*
X168435714Y-119985714D01*
X168721429Y-120057143D01*
X169292857Y-120057143D01*
X169435714Y-119985714D01*
X169507143Y-119914286D01*
X169578571Y-119771428D01*
X169578571Y-119485714D01*
X169507143Y-119342857D01*
X169435714Y-119271428D01*
X169292857Y-119200000D01*
X168935714Y-119200000D01*
X168792857Y-119271428D01*
X168721429Y-119342857D01*
X168650000Y-119485714D01*
X168650000Y-119771428D01*
X168721429Y-119914286D01*
X168792857Y-119985714D01*
X168935714Y-120057143D01*
X168078571Y-118771429D02*
X169578571Y-118271429D01*
X168078571Y-117771429D01*
X143078571Y-121557142D02*
X143078571Y-120628571D01*
X143650000Y-121128571D01*
X143650000Y-120914285D01*
X143721429Y-120771428D01*
X143792857Y-120699999D01*
X143935714Y-120628571D01*
X144292857Y-120628571D01*
X144435714Y-120699999D01*
X144507143Y-120771428D01*
X144578571Y-120914285D01*
X144578571Y-121342857D01*
X144507143Y-121485714D01*
X144435714Y-121557142D01*
X143078571Y-119342857D02*
X143078571Y-119628571D01*
X143150000Y-119771428D01*
X143221429Y-119842857D01*
X143435714Y-119985714D01*
X143721429Y-120057143D01*
X144292857Y-120057143D01*
X144435714Y-119985714D01*
X144507143Y-119914286D01*
X144578571Y-119771428D01*
X144578571Y-119485714D01*
X144507143Y-119342857D01*
X144435714Y-119271428D01*
X144292857Y-119200000D01*
X143935714Y-119200000D01*
X143792857Y-119271428D01*
X143721429Y-119342857D01*
X143650000Y-119485714D01*
X143650000Y-119771428D01*
X143721429Y-119914286D01*
X143792857Y-119985714D01*
X143935714Y-120057143D01*
X143078571Y-118771429D02*
X144578571Y-118271429D01*
X143078571Y-117771429D01*
D12*
X192000000Y-114000000D02*
X194000000Y-114000000D01*
X167000000Y-114000000D02*
X169000000Y-114000000D01*
X142000000Y-114000000D02*
X144000000Y-114000000D01*
D11*
X185557143Y-114571428D02*
X185557143Y-113428571D01*
X190657143Y-114571428D02*
X190657143Y-113428571D01*
X191228571Y-114000000D02*
X190085714Y-114000000D01*
X160557143Y-114571428D02*
X160557143Y-113428571D01*
X165657143Y-114571428D02*
X165657143Y-113428571D01*
X166228571Y-114000000D02*
X165085714Y-114000000D01*
X135557143Y-114571428D02*
X135557143Y-113428571D01*
X140657143Y-114571428D02*
X140657143Y-113428571D01*
X141228571Y-114000000D02*
X140085714Y-114000000D01*
D12*
X112500000Y-74500000D02*
X112500000Y-76250000D01*
X120000000Y-74500000D02*
X120000000Y-73750000D01*
X115000000Y-74500000D02*
X120000000Y-74500000D01*
X115000000Y-74500000D02*
X115000000Y-73750000D01*
X110000000Y-74500000D02*
X115000000Y-74500000D01*
X110000000Y-74500000D02*
X110000000Y-73750000D01*
X105000000Y-74500000D02*
X110000000Y-74500000D01*
X105000000Y-73750000D02*
X105000000Y-74500000D01*
D11*
X104028571Y-73428571D02*
X104028571Y-72571428D01*
X105528571Y-72999999D02*
X104028571Y-72999999D01*
X105528571Y-71214285D02*
X104814286Y-71714285D01*
X105528571Y-72071428D02*
X104028571Y-72071428D01*
X104028571Y-71500000D01*
X104100000Y-71357142D01*
X104171429Y-71285714D01*
X104314286Y-71214285D01*
X104528571Y-71214285D01*
X104671429Y-71285714D01*
X104742857Y-71357142D01*
X104814286Y-71500000D01*
X104814286Y-72071428D01*
X104957143Y-70571428D02*
X104957143Y-69428571D01*
X105528571Y-67571428D02*
X104028571Y-67571428D01*
X104028571Y-67214285D01*
X104100000Y-67000000D01*
X104242857Y-66857142D01*
X104385714Y-66785714D01*
X104671429Y-66714285D01*
X104885714Y-66714285D01*
X105171429Y-66785714D01*
X105314286Y-66857142D01*
X105457143Y-67000000D01*
X105528571Y-67214285D01*
X105528571Y-67571428D01*
X104028571Y-66285714D02*
X104028571Y-65428571D01*
X105528571Y-65857142D02*
X104028571Y-65857142D01*
X104957143Y-64928571D02*
X104957143Y-63785714D01*
X109128571Y-73428571D02*
X109128571Y-72571428D01*
X110628571Y-72999999D02*
X109128571Y-72999999D01*
X110628571Y-71214285D02*
X109914286Y-71714285D01*
X110628571Y-72071428D02*
X109128571Y-72071428D01*
X109128571Y-71500000D01*
X109200000Y-71357142D01*
X109271429Y-71285714D01*
X109414286Y-71214285D01*
X109628571Y-71214285D01*
X109771429Y-71285714D01*
X109842857Y-71357142D01*
X109914286Y-71500000D01*
X109914286Y-72071428D01*
X110057143Y-70571428D02*
X110057143Y-69428571D01*
X110628571Y-70000000D02*
X109485714Y-70000000D01*
X110628571Y-67571428D02*
X109128571Y-67571428D01*
X109128571Y-67214285D01*
X109200000Y-67000000D01*
X109342857Y-66857142D01*
X109485714Y-66785714D01*
X109771429Y-66714285D01*
X109985714Y-66714285D01*
X110271429Y-66785714D01*
X110414286Y-66857142D01*
X110557143Y-67000000D01*
X110628571Y-67214285D01*
X110628571Y-67571428D01*
X109128571Y-66285714D02*
X109128571Y-65428571D01*
X110628571Y-65857142D02*
X109128571Y-65857142D01*
X110057143Y-64928571D02*
X110057143Y-63785714D01*
X114228571Y-72785714D02*
X114228571Y-72642857D01*
X114300000Y-72500000D01*
X114371429Y-72428571D01*
X114514286Y-72357142D01*
X114800000Y-72285714D01*
X115157143Y-72285714D01*
X115442857Y-72357142D01*
X115585714Y-72428571D01*
X115657143Y-72500000D01*
X115728571Y-72642857D01*
X115728571Y-72785714D01*
X115657143Y-72928571D01*
X115585714Y-73000000D01*
X115442857Y-73071428D01*
X115157143Y-73142857D01*
X114800000Y-73142857D01*
X114514286Y-73071428D01*
X114371429Y-73000000D01*
X114300000Y-72928571D01*
X114228571Y-72785714D01*
X114228571Y-71000000D02*
X114228571Y-71285714D01*
X114300000Y-71428571D01*
X114371429Y-71500000D01*
X114585714Y-71642857D01*
X114871429Y-71714286D01*
X115442857Y-71714286D01*
X115585714Y-71642857D01*
X115657143Y-71571429D01*
X115728571Y-71428571D01*
X115728571Y-71142857D01*
X115657143Y-71000000D01*
X115585714Y-70928571D01*
X115442857Y-70857143D01*
X115085714Y-70857143D01*
X114942857Y-70928571D01*
X114871429Y-71000000D01*
X114800000Y-71142857D01*
X114800000Y-71428571D01*
X114871429Y-71571429D01*
X114942857Y-71642857D01*
X115085714Y-71714286D01*
X114228571Y-70428572D02*
X115728571Y-69928572D01*
X114228571Y-69428572D01*
X114300000Y-67000001D02*
X114228571Y-67142858D01*
X114228571Y-67357144D01*
X114300000Y-67571429D01*
X114442857Y-67714287D01*
X114585714Y-67785715D01*
X114871429Y-67857144D01*
X115085714Y-67857144D01*
X115371429Y-67785715D01*
X115514286Y-67714287D01*
X115657143Y-67571429D01*
X115728571Y-67357144D01*
X115728571Y-67214287D01*
X115657143Y-67000001D01*
X115585714Y-66928572D01*
X115085714Y-66928572D01*
X115085714Y-67214287D01*
X115728571Y-66285715D02*
X114228571Y-66285715D01*
X115728571Y-65428572D01*
X114228571Y-65428572D01*
X115728571Y-64714286D02*
X114228571Y-64714286D01*
X114228571Y-64357143D01*
X114300000Y-64142858D01*
X114442857Y-64000000D01*
X114585714Y-63928572D01*
X114871429Y-63857143D01*
X115085714Y-63857143D01*
X115371429Y-63928572D01*
X115514286Y-64000000D01*
X115657143Y-64142858D01*
X115728571Y-64357143D01*
X115728571Y-64714286D01*
X119328571Y-73214285D02*
X119328571Y-72285714D01*
X119900000Y-72785714D01*
X119900000Y-72571428D01*
X119971429Y-72428571D01*
X120042857Y-72357142D01*
X120185714Y-72285714D01*
X120542857Y-72285714D01*
X120685714Y-72357142D01*
X120757143Y-72428571D01*
X120828571Y-72571428D01*
X120828571Y-73000000D01*
X120757143Y-73142857D01*
X120685714Y-73214285D01*
X119328571Y-71000000D02*
X119328571Y-71285714D01*
X119400000Y-71428571D01*
X119471429Y-71500000D01*
X119685714Y-71642857D01*
X119971429Y-71714286D01*
X120542857Y-71714286D01*
X120685714Y-71642857D01*
X120757143Y-71571429D01*
X120828571Y-71428571D01*
X120828571Y-71142857D01*
X120757143Y-71000000D01*
X120685714Y-70928571D01*
X120542857Y-70857143D01*
X120185714Y-70857143D01*
X120042857Y-70928571D01*
X119971429Y-71000000D01*
X119900000Y-71142857D01*
X119900000Y-71428571D01*
X119971429Y-71571429D01*
X120042857Y-71642857D01*
X120185714Y-71714286D01*
X119328571Y-70428572D02*
X120828571Y-69928572D01*
X119328571Y-69428572D01*
X119400000Y-67000001D02*
X119328571Y-67142858D01*
X119328571Y-67357144D01*
X119400000Y-67571429D01*
X119542857Y-67714287D01*
X119685714Y-67785715D01*
X119971429Y-67857144D01*
X120185714Y-67857144D01*
X120471429Y-67785715D01*
X120614286Y-67714287D01*
X120757143Y-67571429D01*
X120828571Y-67357144D01*
X120828571Y-67214287D01*
X120757143Y-67000001D01*
X120685714Y-66928572D01*
X120185714Y-66928572D01*
X120185714Y-67214287D01*
X120828571Y-66285715D02*
X119328571Y-66285715D01*
X120828571Y-65428572D01*
X119328571Y-65428572D01*
X120828571Y-64714286D02*
X119328571Y-64714286D01*
X119328571Y-64357143D01*
X119400000Y-64142858D01*
X119542857Y-64000000D01*
X119685714Y-63928572D01*
X119971429Y-63857143D01*
X120185714Y-63857143D01*
X120471429Y-63928572D01*
X120614286Y-64000000D01*
X120757143Y-64142858D01*
X120828571Y-64357143D01*
X120828571Y-64714286D01*
X113178571Y-93392857D02*
X113178571Y-94107143D01*
X111678571Y-94107143D01*
X113178571Y-92892857D02*
X112178571Y-92892857D01*
X111678571Y-92892857D02*
X111750000Y-92964286D01*
X111821429Y-92892857D01*
X111750000Y-92821429D01*
X111678571Y-92892857D01*
X111821429Y-92892857D01*
X112178571Y-91535714D02*
X113392857Y-91535714D01*
X113535714Y-91607143D01*
X113607143Y-91678571D01*
X113678571Y-91821428D01*
X113678571Y-92035714D01*
X113607143Y-92178571D01*
X113107143Y-91535714D02*
X113178571Y-91678571D01*
X113178571Y-91964285D01*
X113107143Y-92107143D01*
X113035714Y-92178571D01*
X112892857Y-92250000D01*
X112464286Y-92250000D01*
X112321429Y-92178571D01*
X112250000Y-92107143D01*
X112178571Y-91964285D01*
X112178571Y-91678571D01*
X112250000Y-91535714D01*
X113178571Y-90821428D02*
X111678571Y-90821428D01*
X113178571Y-90178571D02*
X112392857Y-90178571D01*
X112250000Y-90250000D01*
X112178571Y-90392857D01*
X112178571Y-90607142D01*
X112250000Y-90750000D01*
X112321429Y-90821428D01*
X112178571Y-89678571D02*
X112178571Y-89107142D01*
X111678571Y-89464285D02*
X112964286Y-89464285D01*
X113107143Y-89392857D01*
X113178571Y-89249999D01*
X113178571Y-89107142D01*
X113035714Y-86607142D02*
X113107143Y-86678571D01*
X113178571Y-86892857D01*
X113178571Y-87035714D01*
X113107143Y-87249999D01*
X112964286Y-87392857D01*
X112821429Y-87464285D01*
X112535714Y-87535714D01*
X112321429Y-87535714D01*
X112035714Y-87464285D01*
X111892857Y-87392857D01*
X111750000Y-87249999D01*
X111678571Y-87035714D01*
X111678571Y-86892857D01*
X111750000Y-86678571D01*
X111821429Y-86607142D01*
X113178571Y-85749999D02*
X113107143Y-85892857D01*
X113035714Y-85964285D01*
X112892857Y-86035714D01*
X112464286Y-86035714D01*
X112321429Y-85964285D01*
X112250000Y-85892857D01*
X112178571Y-85749999D01*
X112178571Y-85535714D01*
X112250000Y-85392857D01*
X112321429Y-85321428D01*
X112464286Y-85249999D01*
X112892857Y-85249999D01*
X113035714Y-85321428D01*
X113107143Y-85392857D01*
X113178571Y-85535714D01*
X113178571Y-85749999D01*
X112178571Y-84607142D02*
X113178571Y-84607142D01*
X112321429Y-84607142D02*
X112250000Y-84535714D01*
X112178571Y-84392856D01*
X112178571Y-84178571D01*
X112250000Y-84035714D01*
X112392857Y-83964285D01*
X113178571Y-83964285D01*
X112178571Y-83249999D02*
X113178571Y-83249999D01*
X112321429Y-83249999D02*
X112250000Y-83178571D01*
X112178571Y-83035713D01*
X112178571Y-82821428D01*
X112250000Y-82678571D01*
X112392857Y-82607142D01*
X113178571Y-82607142D01*
X113107143Y-81321428D02*
X113178571Y-81464285D01*
X113178571Y-81749999D01*
X113107143Y-81892856D01*
X112964286Y-81964285D01*
X112392857Y-81964285D01*
X112250000Y-81892856D01*
X112178571Y-81749999D01*
X112178571Y-81464285D01*
X112250000Y-81321428D01*
X112392857Y-81249999D01*
X112535714Y-81249999D01*
X112678571Y-81964285D01*
X113107143Y-79964285D02*
X113178571Y-80107142D01*
X113178571Y-80392856D01*
X113107143Y-80535714D01*
X113035714Y-80607142D01*
X112892857Y-80678571D01*
X112464286Y-80678571D01*
X112321429Y-80607142D01*
X112250000Y-80535714D01*
X112178571Y-80392856D01*
X112178571Y-80107142D01*
X112250000Y-79964285D01*
X112178571Y-79535714D02*
X112178571Y-78964285D01*
X111678571Y-79321428D02*
X112964286Y-79321428D01*
X113107143Y-79250000D01*
X113178571Y-79107142D01*
X113178571Y-78964285D01*
X113178571Y-78249999D02*
X113107143Y-78392857D01*
X113035714Y-78464285D01*
X112892857Y-78535714D01*
X112464286Y-78535714D01*
X112321429Y-78464285D01*
X112250000Y-78392857D01*
X112178571Y-78249999D01*
X112178571Y-78035714D01*
X112250000Y-77892857D01*
X112321429Y-77821428D01*
X112464286Y-77749999D01*
X112892857Y-77749999D01*
X113035714Y-77821428D01*
X113107143Y-77892857D01*
X113178571Y-78035714D01*
X113178571Y-78249999D01*
X113178571Y-77107142D02*
X112178571Y-77107142D01*
X112464286Y-77107142D02*
X112321429Y-77035714D01*
X112250000Y-76964285D01*
X112178571Y-76821428D01*
X112178571Y-76678571D01*
X104672857Y-87292857D02*
X104672857Y-87792857D01*
X105458571Y-87792857D02*
X103958571Y-87792857D01*
X103958571Y-87078571D01*
X105030000Y-86578572D02*
X105030000Y-85864286D01*
X105458571Y-86721429D02*
X103958571Y-86221429D01*
X105458571Y-85721429D01*
X105458571Y-85221429D02*
X103958571Y-85221429D01*
X105458571Y-83792857D02*
X105458571Y-84507143D01*
X103958571Y-84507143D01*
D12*
X119000000Y-114000000D02*
X119000000Y-117100000D01*
X117000000Y-114000000D02*
X119000000Y-114000000D01*
X111700000Y-114000000D02*
X114300000Y-114000000D01*
D11*
X110557143Y-114571428D02*
X110557143Y-113428571D01*
X115657143Y-114571428D02*
X115657143Y-113428571D01*
X116228571Y-114000000D02*
X115085714Y-114000000D01*
X118078571Y-121557142D02*
X118078571Y-120628571D01*
X118650000Y-121128571D01*
X118650000Y-120914285D01*
X118721429Y-120771428D01*
X118792857Y-120699999D01*
X118935714Y-120628571D01*
X119292857Y-120628571D01*
X119435714Y-120699999D01*
X119507143Y-120771428D01*
X119578571Y-120914285D01*
X119578571Y-121342857D01*
X119507143Y-121485714D01*
X119435714Y-121557142D01*
X118078571Y-119342857D02*
X118078571Y-119628571D01*
X118150000Y-119771428D01*
X118221429Y-119842857D01*
X118435714Y-119985714D01*
X118721429Y-120057143D01*
X119292857Y-120057143D01*
X119435714Y-119985714D01*
X119507143Y-119914286D01*
X119578571Y-119771428D01*
X119578571Y-119485714D01*
X119507143Y-119342857D01*
X119435714Y-119271428D01*
X119292857Y-119200000D01*
X118935714Y-119200000D01*
X118792857Y-119271428D01*
X118721429Y-119342857D01*
X118650000Y-119485714D01*
X118650000Y-119771428D01*
X118721429Y-119914286D01*
X118792857Y-119985714D01*
X118935714Y-120057143D01*
X118078571Y-118771429D02*
X119578571Y-118271429D01*
X118078571Y-117771429D01*
D12*
X192000000Y-145000000D02*
X194200000Y-145000000D01*
X187100000Y-145000000D02*
X189000000Y-145000000D01*
X187100000Y-141600000D02*
X187100000Y-145000000D01*
X106900000Y-146000000D02*
X104700000Y-146000000D01*
X112000000Y-146000000D02*
X109700000Y-146000000D01*
X116400000Y-146000000D02*
X114800000Y-146000000D01*
X116400000Y-142200000D02*
X116400000Y-146000000D01*
D11*
X102578571Y-146185713D02*
X102578571Y-146899999D01*
X103292857Y-146971428D01*
X103221429Y-146899999D01*
X103150000Y-146757142D01*
X103150000Y-146399999D01*
X103221429Y-146257142D01*
X103292857Y-146185713D01*
X103435714Y-146114285D01*
X103792857Y-146114285D01*
X103935714Y-146185713D01*
X104007143Y-146257142D01*
X104078571Y-146399999D01*
X104078571Y-146757142D01*
X104007143Y-146899999D01*
X103935714Y-146971428D01*
X102578571Y-145685714D02*
X104078571Y-145185714D01*
X102578571Y-144685714D01*
X107678571Y-146792857D02*
X107678571Y-145935714D01*
X109178571Y-146364285D02*
X107678571Y-146364285D01*
X109178571Y-145435714D02*
X108178571Y-145435714D01*
X108464286Y-145435714D02*
X108321429Y-145364286D01*
X108250000Y-145292857D01*
X108178571Y-145150000D01*
X108178571Y-145007143D01*
X112850000Y-147042857D02*
X112778571Y-147185714D01*
X112778571Y-147400000D01*
X112850000Y-147614285D01*
X112992857Y-147757143D01*
X113135714Y-147828571D01*
X113421429Y-147900000D01*
X113635714Y-147900000D01*
X113921429Y-147828571D01*
X114064286Y-147757143D01*
X114207143Y-147614285D01*
X114278571Y-147400000D01*
X114278571Y-147257143D01*
X114207143Y-147042857D01*
X114135714Y-146971428D01*
X113635714Y-146971428D01*
X113635714Y-147257143D01*
X114278571Y-146328571D02*
X112778571Y-146328571D01*
X114278571Y-145471428D01*
X112778571Y-145471428D01*
X114278571Y-144757142D02*
X112778571Y-144757142D01*
X112778571Y-144399999D01*
X112850000Y-144185714D01*
X112992857Y-144042856D01*
X113135714Y-143971428D01*
X113421429Y-143899999D01*
X113635714Y-143899999D01*
X113921429Y-143971428D01*
X114064286Y-144042856D01*
X114207143Y-144185714D01*
X114278571Y-144399999D01*
X114278571Y-144757142D01*
D12*
X138500000Y-145000000D02*
X138500000Y-141900000D01*
X136500000Y-145000000D02*
X138500000Y-145000000D01*
X131500000Y-145000000D02*
X134000000Y-145000000D01*
X126600000Y-145000000D02*
X128700000Y-145000000D01*
X121500000Y-145000000D02*
X123800000Y-145000000D01*
D11*
X120828571Y-145428571D02*
X119328571Y-145428571D01*
X120042857Y-145428571D02*
X120042857Y-144571428D01*
X120828571Y-144571428D02*
X119328571Y-144571428D01*
X125928571Y-144535714D02*
X125928571Y-145250000D01*
X124428571Y-145250000D01*
X131028571Y-145428571D02*
X129528571Y-145428571D01*
X130242857Y-145428571D02*
X130242857Y-144571428D01*
X131028571Y-144571428D02*
X129528571Y-144571428D01*
X136128571Y-144535714D02*
X136128571Y-145250000D01*
X134628571Y-145250000D01*
X117035714Y-140528570D02*
X117107143Y-140599999D01*
X117178571Y-140814285D01*
X117178571Y-140957142D01*
X117107143Y-141171427D01*
X116964286Y-141314285D01*
X116821429Y-141385713D01*
X116535714Y-141457142D01*
X116321429Y-141457142D01*
X116035714Y-141385713D01*
X115892857Y-141314285D01*
X115750000Y-141171427D01*
X115678571Y-140957142D01*
X115678571Y-140814285D01*
X115750000Y-140599999D01*
X115821429Y-140528570D01*
X115678571Y-140028570D02*
X117178571Y-139028570D01*
X115678571Y-139028570D02*
X117178571Y-140028570D01*
X117178571Y-138457142D02*
X115678571Y-138457142D01*
X115678571Y-137885714D01*
X115750000Y-137742856D01*
X115821429Y-137671428D01*
X115964286Y-137599999D01*
X116178571Y-137599999D01*
X116321429Y-137671428D01*
X116392857Y-137742856D01*
X116464286Y-137885714D01*
X116464286Y-138457142D01*
X115678571Y-136028571D02*
X115678571Y-135171428D01*
X117178571Y-135599999D02*
X115678571Y-135599999D01*
X117178571Y-134671428D02*
X116178571Y-134671428D01*
X116464286Y-134671428D02*
X116321429Y-134600000D01*
X116250000Y-134528571D01*
X116178571Y-134385714D01*
X116178571Y-134242857D01*
X117178571Y-133742857D02*
X116178571Y-133742857D01*
X115678571Y-133742857D02*
X115750000Y-133814286D01*
X115821429Y-133742857D01*
X115750000Y-133671429D01*
X115678571Y-133742857D01*
X115821429Y-133742857D01*
X116178571Y-132385714D02*
X117392857Y-132385714D01*
X117535714Y-132457143D01*
X117607143Y-132528571D01*
X117678571Y-132671428D01*
X117678571Y-132885714D01*
X117607143Y-133028571D01*
X117107143Y-132385714D02*
X117178571Y-132528571D01*
X117178571Y-132814285D01*
X117107143Y-132957143D01*
X117035714Y-133028571D01*
X116892857Y-133100000D01*
X116464286Y-133100000D01*
X116321429Y-133028571D01*
X116250000Y-132957143D01*
X116178571Y-132814285D01*
X116178571Y-132528571D01*
X116250000Y-132385714D01*
X116178571Y-131028571D02*
X117392857Y-131028571D01*
X117535714Y-131100000D01*
X117607143Y-131171428D01*
X117678571Y-131314285D01*
X117678571Y-131528571D01*
X117607143Y-131671428D01*
X117107143Y-131028571D02*
X117178571Y-131171428D01*
X117178571Y-131457142D01*
X117107143Y-131600000D01*
X117035714Y-131671428D01*
X116892857Y-131742857D01*
X116464286Y-131742857D01*
X116321429Y-131671428D01*
X116250000Y-131600000D01*
X116178571Y-131457142D01*
X116178571Y-131171428D01*
X116250000Y-131028571D01*
X117107143Y-129742857D02*
X117178571Y-129885714D01*
X117178571Y-130171428D01*
X117107143Y-130314285D01*
X116964286Y-130385714D01*
X116392857Y-130385714D01*
X116250000Y-130314285D01*
X116178571Y-130171428D01*
X116178571Y-129885714D01*
X116250000Y-129742857D01*
X116392857Y-129671428D01*
X116535714Y-129671428D01*
X116678571Y-130385714D01*
X117178571Y-129028571D02*
X116178571Y-129028571D01*
X116464286Y-129028571D02*
X116321429Y-128957143D01*
X116250000Y-128885714D01*
X116178571Y-128742857D01*
X116178571Y-128600000D01*
X139235714Y-140464285D02*
X139307143Y-140535714D01*
X139378571Y-140750000D01*
X139378571Y-140892857D01*
X139307143Y-141107142D01*
X139164286Y-141250000D01*
X139021429Y-141321428D01*
X138735714Y-141392857D01*
X138521429Y-141392857D01*
X138235714Y-141321428D01*
X138092857Y-141250000D01*
X137950000Y-141107142D01*
X137878571Y-140892857D01*
X137878571Y-140750000D01*
X137950000Y-140535714D01*
X138021429Y-140464285D01*
X138950000Y-139892857D02*
X138950000Y-139178571D01*
X139378571Y-140035714D02*
X137878571Y-139535714D01*
X139378571Y-139035714D01*
X139378571Y-138535714D02*
X137878571Y-138535714D01*
X139378571Y-137678571D01*
X137878571Y-137678571D01*
X190557143Y-145571428D02*
X190557143Y-144428571D01*
X195657143Y-145571428D02*
X195657143Y-144428571D01*
X196228571Y-145000000D02*
X195085714Y-145000000D01*
X187450000Y-140749999D02*
X187450000Y-140035713D01*
X187878571Y-140892856D02*
X186378571Y-140392856D01*
X187878571Y-139892856D01*
X187878571Y-139178570D02*
X187807143Y-139321428D01*
X187664286Y-139392856D01*
X186378571Y-139392856D01*
X187878571Y-138607142D02*
X186878571Y-138607142D01*
X186378571Y-138607142D02*
X186450000Y-138678571D01*
X186521429Y-138607142D01*
X186450000Y-138535714D01*
X186378571Y-138607142D01*
X186521429Y-138607142D01*
X187878571Y-137892856D02*
X186878571Y-137892856D01*
X187021429Y-137892856D02*
X186950000Y-137821428D01*
X186878571Y-137678570D01*
X186878571Y-137464285D01*
X186950000Y-137321428D01*
X187092857Y-137249999D01*
X187878571Y-137249999D01*
X187092857Y-137249999D02*
X186950000Y-137178570D01*
X186878571Y-137035713D01*
X186878571Y-136821428D01*
X186950000Y-136678570D01*
X187092857Y-136607142D01*
X187878571Y-136607142D01*
X187878571Y-133964285D02*
X187878571Y-134821428D01*
X187878571Y-134392856D02*
X186378571Y-134392856D01*
X186592857Y-134535713D01*
X186735714Y-134678571D01*
X186807143Y-134821428D01*
X186521429Y-133392857D02*
X186450000Y-133321428D01*
X186378571Y-133178571D01*
X186378571Y-132821428D01*
X186450000Y-132678571D01*
X186521429Y-132607142D01*
X186664286Y-132535714D01*
X186807143Y-132535714D01*
X187021429Y-132607142D01*
X187878571Y-133464285D01*
X187878571Y-132535714D01*
X186378571Y-132107143D02*
X187878571Y-131607143D01*
X186378571Y-131107143D01*
X178778571Y-145178571D02*
X178064286Y-145678571D01*
X178778571Y-146035714D02*
X177278571Y-146035714D01*
X177278571Y-145464286D01*
X177350000Y-145321428D01*
X177421429Y-145250000D01*
X177564286Y-145178571D01*
X177778571Y-145178571D01*
X177921429Y-145250000D01*
X177992857Y-145321428D01*
X178064286Y-145464286D01*
X178064286Y-146035714D01*
X177992857Y-144535714D02*
X177992857Y-144035714D01*
X178778571Y-143821428D02*
X178778571Y-144535714D01*
X177278571Y-144535714D01*
X177278571Y-143821428D01*
X178707143Y-143250000D02*
X178778571Y-143035714D01*
X178778571Y-142678571D01*
X178707143Y-142535714D01*
X178635714Y-142464285D01*
X178492857Y-142392857D01*
X178350000Y-142392857D01*
X178207143Y-142464285D01*
X178135714Y-142535714D01*
X178064286Y-142678571D01*
X177992857Y-142964285D01*
X177921429Y-143107143D01*
X177850000Y-143178571D01*
X177707143Y-143250000D01*
X177564286Y-143250000D01*
X177421429Y-143178571D01*
X177350000Y-143107143D01*
X177278571Y-142964285D01*
X177278571Y-142607143D01*
X177350000Y-142392857D01*
X177992857Y-141750000D02*
X177992857Y-141250000D01*
X178778571Y-141035714D02*
X178778571Y-141750000D01*
X177278571Y-141750000D01*
X177278571Y-141035714D01*
X177278571Y-140607143D02*
X177278571Y-139750000D01*
X178778571Y-140178571D02*
X177278571Y-140178571D01*
X160664286Y-146285714D02*
X160950000Y-146285714D01*
X160950000Y-146214285D02*
X160664286Y-146214285D01*
X160592857Y-146142857D02*
X161021429Y-146142857D01*
X160950000Y-146071428D02*
X160664286Y-146071428D01*
X160664286Y-145999999D02*
X160950000Y-145999999D01*
X160878571Y-146285714D02*
X161021429Y-146142857D01*
X160878571Y-145999999D01*
X160735714Y-146285714D02*
X160592857Y-146142857D01*
X160735714Y-145999999D01*
X160664286Y-146285714D02*
X160592857Y-146142857D01*
X160664286Y-145999999D01*
X160807143Y-145928571D01*
X160950000Y-145999999D01*
X161021429Y-146142857D01*
X160950000Y-146285714D01*
X160807143Y-146357142D01*
X160664286Y-146285714D01*
X161378571Y-143714285D02*
X159878571Y-143714285D01*
X161235714Y-142142856D02*
X161307143Y-142214285D01*
X161378571Y-142428571D01*
X161378571Y-142571428D01*
X161307143Y-142785713D01*
X161164286Y-142928571D01*
X161021429Y-142999999D01*
X160735714Y-143071428D01*
X160521429Y-143071428D01*
X160235714Y-142999999D01*
X160092857Y-142928571D01*
X159950000Y-142785713D01*
X159878571Y-142571428D01*
X159878571Y-142428571D01*
X159950000Y-142214285D01*
X160021429Y-142142856D01*
X161307143Y-141571428D02*
X161378571Y-141357142D01*
X161378571Y-140999999D01*
X161307143Y-140857142D01*
X161235714Y-140785713D01*
X161092857Y-140714285D01*
X160950000Y-140714285D01*
X160807143Y-140785713D01*
X160735714Y-140857142D01*
X160664286Y-140999999D01*
X160592857Y-141285713D01*
X160521429Y-141428571D01*
X160450000Y-141499999D01*
X160307143Y-141571428D01*
X160164286Y-141571428D01*
X160021429Y-141499999D01*
X159950000Y-141428571D01*
X159878571Y-141285713D01*
X159878571Y-140928571D01*
X159950000Y-140714285D01*
X161378571Y-140071428D02*
X159878571Y-140071428D01*
X159878571Y-139500000D01*
X159950000Y-139357142D01*
X160021429Y-139285714D01*
X160164286Y-139214285D01*
X160378571Y-139214285D01*
X160521429Y-139285714D01*
X160592857Y-139357142D01*
X160664286Y-139500000D01*
X160664286Y-140071428D01*
M02*
