<?xml version="1.0" encoding="UTF-8" standalone="no"?>
<!-- Created with Inkscape (http://www.inkscape.org/) -->

<svg
   version="1.1"
   id="svg840"
   xml:space="preserve"
   width="365.51999"
   height="105.48"
   viewBox="0 0 365.51999 105.48"
   sodipodi:docname="UNIGE.svg"
   inkscape:version="1.1.2 (0a00cf5339, 2022-02-04)"
   xmlns:inkscape="http://www.inkscape.org/namespaces/inkscape"
   xmlns:sodipodi="http://sodipodi.sourceforge.net/DTD/sodipodi-0.dtd"
   xmlns="http://www.w3.org/2000/svg"
   xmlns:svg="http://www.w3.org/2000/svg"><defs
     id="defs844" /><sodipodi:namedview
     id="namedview842"
     pagecolor="#ffffff"
     bordercolor="#666666"
     borderopacity="1.0"
     inkscape:pageshadow="2"
     inkscape:pageopacity="0.0"
     inkscape:pagecheckerboard="0"
     showgrid="false"
     inkscape:zoom="3.5921428"
     inkscape:cx="182.75999"
     inkscape:cy="52.614835"
     inkscape:window-width="1920"
     inkscape:window-height="1011"
     inkscape:window-x="0"
     inkscape:window-y="32"
     inkscape:window-maximized="1"
     inkscape:current-layer="g846" /><g
     id="g846"
     inkscape:groupmode="layer"
     inkscape:label="ink_ext_XXXXXX"
     transform="matrix(1.3333333,0,0,-1.3333333,0,105.48)"><g
       id="g848"
       transform="scale(0.1)"><path
         d="m 173.453,604.98 17.059,-22.058 12.523,9.687 -27.785,35.922 -9.812,-7.59 c 3.898,-6.043 -1.692,-13.339 -8.59,-18.507 l 4.984,-6.442 11.621,8.988"
         style="fill:#231f20;fill-opacity:1;fill-rule:nonzero;stroke:none"
         id="path850" /><path
         d="m 218.746,625.703 c 0.863,3.516 3.356,5.602 7.109,7.531 5.477,2.813 10.004,1.692 12.032,-2.246 2.019,-3.941 -0.582,-8.504 -5.742,-11.156 -3.997,-2.051 -9.641,-2.605 -11.36,0.543 l -13.301,-6.828 c 5.754,-9.277 16.871,-7.82 28.766,-1.711 12.676,6.508 19.82,16.477 14.703,26.445 -4.316,8.403 -13.879,9.5 -25.07,3.754 -4.149,-2.129 -7.426,-4.984 -9.153,-8.363 l -0.16,-0.078 -1.746,8.41 24.184,12.41 -4.285,8.352 -34.434,-17.684 6.406,-25.57 12.051,6.191"
         style="fill:#231f20;fill-opacity:1;fill-rule:nonzero;stroke:none"
         id="path852" /><path
         d="m 507.203,639.668 c -4.16,2.105 -8.398,3.074 -12.148,2.488 l -0.157,0.082 5.778,6.352 24.258,-12.258 4.23,8.375 -34.547,17.457 -16.918,-20.215 12.098,-6.113 c 3.348,1.371 6.504,0.586 10.266,-1.32 5.5,-2.778 7.257,-7.098 5.257,-11.055 -1.996,-3.953 -7.215,-4.523 -12.394,-1.906 -4.004,2.019 -7.781,6.261 -6.242,9.5 l -13.344,6.742 c -4.121,-10.106 3.594,-18.242 15.527,-24.27 12.719,-6.425 24.981,-6.343 30.039,3.657 4.258,8.429 -0.472,16.808 -11.703,22.484"
         style="fill:#231f20;fill-opacity:1;fill-rule:nonzero;stroke:none"
         id="path854" /><path
         d="m 562.207,622.301 c -10.094,7.797 -22.652,9.101 -28.59,1.422 -5.414,-7.016 -2.824,-17.332 6.778,-24.758 4.175,-3.227 9.539,-5.641 13.843,-4.52 l 0.141,-0.109 c -3.945,-4.531 -9.629,-7.141 -16.027,-2.188 -1.465,1.129 -2.793,2.575 -3.543,4.051 -0.786,1.434 -1.008,3.008 -0.414,4.36 l -11.067,8.554 c -3.469,-7.945 0.504,-16.043 9.344,-22.875 15.453,-11.937 28.121,-7.484 36.133,2.879 7.449,9.645 7.527,22.262 -6.598,33.184 z m -1.57,-19.297 c -2.512,-3.246 -7.606,-3.512 -12.617,0.363 -4.872,3.766 -5.762,8.656 -3.172,12.004 2.308,2.992 7.613,3.098 12.066,-0.351 5.082,-3.926 6.191,-8.821 3.723,-12.016"
         style="fill:#231f20;fill-opacity:1;fill-rule:nonzero;stroke:none"
         id="path856" /><path
         d="m 60.5938,436.055 c 7.9726,-2.637 13.8242,5.05 18.4687,13.066 4.6719,8.086 8.1445,16.484 11.5469,15.363 2.9023,-0.957 2.3867,-5.429 1.2851,-8.769 -1.5859,-4.77 -4.5742,-9.438 -8.5117,-7.844 l -5.1445,-15.527 c 9.9883,-3.223 18.2109,7.297 22.1367,19.16 3.719,11.199 4.281,25.547 -5.3594,28.738 -8.1054,2.688 -13.9179,-5.301 -18.5312,-13.211 -4.6485,-8.008 -8.1992,-16.289 -12.1055,-14.98 -3.2773,1.086 -2.9062,6.34 -1.3516,11.015 2.1719,6.582 5.2891,10.372 10.5899,8.985 l 5.1523,15.539 c -11.3515,3.648 -19.8086,-6.977 -24.3554,-20.656 -4.336,-13.106 -5.0157,-27.168 6.1797,-30.879"
         style="fill:#231f20;fill-opacity:1;fill-rule:nonzero;stroke:none"
         id="path858" /><path
         d="m 55.4766,357.781 1.25,16.313 c -5.2852,1.023 -8.1953,5.664 -7.6094,13.301 0.8203,10.515 8.0156,14.019 14.9062,13.484 6.8829,-0.535 13.4571,-5.098 12.6446,-15.613 -0.5196,-6.848 -3.3711,-11.575 -8.1172,-12.082 L 67.2891,356.875 C 78.5,356.438 86,370.598 87.0313,384.121 88.5,403.047 78.7266,416.152 65.2773,417.188 51.832,418.223 40.1602,406.777 38.6953,387.832 37.4805,371.953 43.5859,359.563 55.4766,357.781"
         style="fill:#231f20;fill-opacity:1;fill-rule:nonzero;stroke:none"
         id="path860" /><path
         d="m 91.2891,305.254 -16.7032,-2.859 -3.6601,21.226 16.7031,2.871 -2.7812,16.133 L 39,334.727 l 2.7773,-16.133 18.8829,3.261 3.6562,-21.242 -18.8828,-3.258 2.7852,-16.125 45.8437,7.903 -2.7734,16.121"
         style="fill:#231f20;fill-opacity:1;fill-rule:nonzero;stroke:none"
         id="path862" /><path
         d="m 110.648,249.758 c -8.097,18.055 -22.4761,23.855 -34.7886,18.34 -12.3047,-5.528 -17.5391,-20.118 -9.4453,-38.188 8.0976,-18.055 22.4687,-23.836 34.7769,-18.328 12.317,5.52 17.547,20.109 9.457,38.176 z M 94.4961,226.516 c -6.3008,-2.825 -14.2539,-1.965 -18.5781,7.675 -4.3164,9.629 0.3359,16.153 6.6367,18.973 6.3008,2.813 14.2578,1.953 18.5783,-7.676 4.32,-9.629 -0.32,-16.152 -6.6369,-18.972"
         style="fill:#231f20;fill-opacity:1;fill-rule:nonzero;stroke:none"
         id="path864" /><path
         d="m 139.52,198.289 -9.911,13.031 -37.0113,-28.183 27.6523,-36.328 8.289,6.304 -17.734,23.313 28.715,21.863"
         style="fill:#231f20;fill-opacity:1;fill-rule:nonzero;stroke:none"
         id="path866" /><path
         d="m 128.789,136.77 12.754,-10.95 8.434,3.75 16.617,-14.277 -2.496,-8.84 12.941,-11.121 12.492,50.598 -12.605,10.828 z m 40.723,-12.129 -10.805,9.285 16.016,7.715 0.136,-0.11 -5.347,-16.89"
         style="fill:#231f20;fill-opacity:1;fill-rule:nonzero;stroke:none"
         id="path868" /><path
         d="m 306.555,80.4023 c 6.457,-1.3398 11.14,-4.7656 10.847,-8.7695 l 16.02,-3.3203 c 0.902,11.7266 -11.66,19.5898 -24.406,22.2344 -18.606,3.8554 -32.848,-4.1797 -35.586,-17.3828 -2.739,-13.2032 7.136,-26.2305 25.742,-30.0899 5.687,-1.1797 13.238,-1.1484 18.371,2.375 l -0.082,-5.1679 10.332,-2.1446 5.176,24.9492 -25.84,5.3516 -1.824,-8.7969 11.199,-2.3242 c -1.723,-3.9648 -7.637,-5.6055 -15.563,-3.957 -10.332,2.1367 -12.894,9.7265 -11.492,16.4844 1.406,6.7578 6.766,12.707 17.106,10.5585"
         style="fill:#231f20;fill-opacity:1;fill-rule:nonzero;stroke:none"
         id="path870" /><path
         d="m 374.004,47.7031 -0.449,8.8516 30.746,1.5586 -0.477,9.375 -30.75,-1.5703 -0.406,8.1367 33.641,1.7187 -0.493,9.6954 -49.988,-2.5391 2.363,-46.4649 50.868,2.5782 -0.528,10.4101 -34.527,-1.75"
         style="fill:#231f20;fill-opacity:1;fill-rule:nonzero;stroke:none"
         id="path872" /><path
         d="m 460.344,99.8828 8.523,-27.3711 -0.168,-0.0508 -29.347,20.8907 -16.047,-5 13.836,-44.4258 14.695,4.582 -8.621,27.6836 0.168,0.0586 29.449,-21.1992 16.047,5 -13.84,44.4142 -14.695,-4.5822"
         style="fill:#231f20;fill-opacity:1;fill-rule:nonzero;stroke:none"
         id="path874" /><path
         d="m 524.957,90.4805 -4.66,7.539 26.187,16.1795 -4.925,7.981 -26.2,-16.184 -4.281,6.934 28.668,17.707 -5.101,8.261 -42.582,-26.308 24.453,-39.5822 43.324,26.7695 -5.477,8.8677 -29.406,-18.1645"
         style="fill:#231f20;fill-opacity:1;fill-rule:nonzero;stroke:none"
         id="path876" /><path
         d="m 573.574,175.547 15.891,-33.113 -0.125,-0.129 -33.235,15.636 -12.019,-12.121 46.969,-18.711 13.258,13.36 -18.711,47.187 -12.028,-12.109"
         style="fill:#231f20;fill-opacity:1;fill-rule:nonzero;stroke:none"
         id="path878" /><path
         d="m 632.383,193.379 -7.578,4.601 15.965,26.317 -8.028,4.863 -15.961,-26.316 -6.961,4.226 17.465,28.797 -8.301,5.039 -25.953,-42.801 39.782,-24.121 26.41,43.555 -8.914,5.402 -17.926,-29.562"
         style="fill:#231f20;fill-opacity:1;fill-rule:nonzero;stroke:none"
         id="path880" /><path
         d="m 637.637,294.309 27.453,-8.274 -0.047,-0.168 -33.75,-12.613 -4.848,-16.086 44.551,-13.43 4.442,14.739 -27.766,8.371 0.055,0.164 34.054,12.527 4.844,16.086 -44.547,13.418 -4.441,-14.734"
         style="fill:#231f20;fill-opacity:1;fill-rule:nonzero;stroke:none"
         id="path882" /><path
         d="m 678.992,377.5 c -8.394,0.371 -11.926,-8.625 -14.219,-17.598 -2.289,-9.05 -3.335,-18.078 -6.921,-17.918 -3.063,0.133 -3.774,4.571 -3.618,8.086 0.219,5.008 1.821,10.313 6.043,9.852 l 0.731,16.348 c -10.488,0.382 -15.535,-11.993 -16.098,-24.473 -0.519,-11.777 2.844,-25.742 12.996,-26.192 8.532,-0.378 11.938,8.887 14.227,17.762 2.293,8.977 3.469,17.903 7.57,17.727 3.449,-0.156 4.52,-5.313 4.305,-10.235 -0.309,-6.945 -2.27,-11.433 -7.754,-11.543 l -0.723,-16.347 c 11.914,-0.442 17.168,12.101 17.809,26.504 0.613,13.808 -2.563,27.5 -14.348,28.027"
         style="fill:#231f20;fill-opacity:1;fill-rule:nonzero;stroke:none"
         id="path884" /><path
         d="m 644.465,396.465 46.047,6.64 -2.332,16.192 -46.051,-6.633 2.336,-16.199"
         style="fill:#231f20;fill-opacity:1;fill-rule:nonzero;stroke:none"
         id="path886" /><path
         d="m 651.801,435.402 c 8.07,2.774 7.847,12.645 6.73,21.746 -1.16,9.18 -3.332,17.922 0.555,19.258 3.262,1.121 6.152,-3.281 7.75,-7.937 2.258,-6.582 2.074,-11.477 -2.984,-13.586 l 5.308,-15.481 c 11.25,3.957 11.555,17.543 6.863,31.196 -4.476,13.054 -12.449,24.636 -23.601,20.816 -7.949,-2.723 -7.942,-12.391 -6.793,-21.582 1.184,-9.266 3.508,-18.047 0.117,-19.207 -2.894,-0.984 -5.187,2.871 -6.328,6.191 -1.625,4.747 -2.074,10.262 2.023,11.399 l -5.32,15.476 c -9.887,-3.488 -10.058,-16.843 -6.004,-28.664 3.824,-11.152 12.067,-22.925 21.684,-19.625"
         style="fill:#231f20;fill-opacity:1;fill-rule:nonzero;stroke:none"
         id="path888" /><path
         d="m 218.848,95.918 c -3.692,-4.8907 -2.703,-11.8555 2.187,-15.5469 4.899,-3.6992 11.856,-2.7148 15.535,2.1797 3.703,4.8984 2.727,11.8515 -2.168,15.5469 -4.906,3.6873 -11.863,2.7153 -15.554,-2.1797"
         style="fill:#231f20;fill-opacity:1;fill-rule:nonzero;stroke:none"
         id="path890" /><path
         d="m 128.027,539.184 c 3.614,4.961 2.532,11.906 -2.422,15.519 -4.96,3.613 -11.894,2.527 -15.515,-2.426 -3.613,-4.957 -2.531,-11.902 2.422,-15.504 4.961,-3.625 11.902,-2.535 15.515,2.411"
         style="fill:#231f20;fill-opacity:1;fill-rule:nonzero;stroke:none"
         id="path892" /><path
         d="m 600.145,552.277 c -3.614,-4.957 -2.528,-11.902 2.433,-15.504 4.949,-3.625 11.895,-2.535 15.508,2.411 3.613,4.961 2.527,11.906 -2.422,15.519 -4.961,3.613 -11.894,2.527 -15.519,-2.426"
         style="fill:#231f20;fill-opacity:1;fill-rule:nonzero;stroke:none"
         id="path894" /><path
         d="m 392.402,673.324 -9.011,-14.121 h 22.058 v 6.848 l -8.691,-0.051 4.812,7.199 -4.812,7.414 8.535,0.051 v 6.742 h -21.902 l 9.011,-14.082"
         style="fill:#231f20;fill-opacity:1;fill-rule:nonzero;stroke:none"
         id="path896" /><path
         d="m 344.727,666 -5.442,-0.059 v 14.723 l 5.063,-0.051 v 6.793 h -18.149 v -6.793 l 5.039,0.051 V 665.941 L 325.867,666 v -6.797 h 18.86 V 666"
         style="fill:#231f20;fill-opacity:1;fill-rule:nonzero;stroke:none"
         id="path898" /><path
         d="m 370.41,677.465 h -11.484 l 0.051,10.051 h -8.418 v -28.313 h 8.418 l -0.051,11.25 h 11.484 v -11.25 h 8.399 v 28.313 h -8.399 v -10.051"
         style="fill:#231f20;fill-opacity:1;fill-rule:nonzero;stroke:none"
         id="path900" /><path
         d="m 361.133,704.25 c 0,2.121 1.535,3.48 3.762,3.48 2,0 3.496,-1.535 3.496,-3.48 l 0.105,-10.008 h 15.692 v 8.41 h -9.618 l -0.039,2.137 c -0.058,6.031 -2.843,10.879 -9.695,10.879 -5.266,0 -8.906,-2.941 -9.555,-7.996 -0.113,-1.086 -0.113,-2.219 -0.113,-3.317 v -1.703 h -9.609 l -0.012,-8.41 h 15.566 l 0.02,10.008"
         style="fill:#231f20;fill-opacity:1;fill-rule:nonzero;stroke:none"
         id="path902" /><path
         d="m 364.895,652.574 c -2.786,0 -5.051,-2.265 -5.051,-5.058 0,-2.789 2.265,-5.055 5.051,-5.055 2.793,0 5.054,2.266 5.054,5.055 0,2.793 -2.261,5.058 -5.054,5.058"
         style="fill:#231f20;fill-opacity:1;fill-rule:nonzero;stroke:none"
         id="path904" /><path
         d="m 442.891,719.801 7.453,9.168 -43.406,-6.387 6.871,42.922 -34.2,-27.719 -15.714,41.086 -15.704,-41.113 -34.128,27.773 6.945,-43.496 -43.508,6.985 7.563,-9.317 C 122.18,683.453 0,537.867 0,364.223 0,163.395 163.391,0 364.219,0 c 200.832,0 364.219,163.395 364.219,364.223 0,173.82 -122.418,319.507 -285.547,355.578 z m -78.203,8.926 c 27.542,0 49.953,-22.407 49.953,-49.954 0,-27.539 -22.411,-49.941 -49.953,-49.941 -27.543,0 -49.954,22.402 -49.954,49.941 0,27.547 22.411,49.954 49.954,49.954 z m 45.996,-113.008 c 54.355,-10.031 102.754,-37.223 139.296,-75.813 h -23.398 v -17.461 h -21.301 v 17.461 h -28.98 v -24.105 h -17.129 c 0,0 0.113,36.703 0.113,37.082 0,8.254 -6.722,14.972 -14.984,14.972 -8.262,0 -14.985,-6.718 -14.985,-14.972 0,-0.379 0.118,-194.528 0.118,-194.528 l -29.715,-27.394 v -14.457 c -13.071,-1.891 -23.926,-10.258 -29.453,-21.695 v 296.359 l 9.937,28.766 33.586,-27.301 z M 424.57,196.156 c -7.414,-2.894 -12.683,-10.062 -12.683,-18.496 0,-10.976 8.906,-19.883 19.89,-19.883 h 25.047 c 10.989,0 19.895,8.907 19.895,19.883 0,8.434 -5.27,15.602 -12.68,18.496 33.895,11.813 58.266,43.977 58.266,81.907 0,19.628 -14.547,35.71 -33.418,38.441 v 14.457 l -29.715,27.394 v 57.032 h 17.129 v -24.11 h 28.98 v 18.231 h 21.301 v -18.231 h 28.984 v 64.43 h -28.984 v -15.586 h -21.301 v 15.586 h -24.043 v 19.766 h 24.043 v 15.582 h 21.301 v -15.582 h 28.984 v 58.429 c 40.137,-45.179 64.551,-104.621 64.551,-169.679 0,-139.075 -111.539,-252.508 -249.851,-255.746 v 143.746 c 8.187,-26.203 28.449,-47.063 54.304,-56.067 z m -38.222,81.907 c 0,9.32 6.738,17.019 15.59,18.613 0.75,-11.071 9.871,-19.852 21.128,-19.852 h 42.539 c 11.25,0 20.375,8.778 21.125,19.84 8.821,-1.609 15.528,-9.305 15.528,-18.601 0,-35.821 -24.68,-57.465 -57.949,-65.7 -33.274,8.235 -57.961,29.879 -57.961,65.7 z M 192.996,467.789 c -1.351,-1.801 -2.305,-3.926 -2.305,-6.348 0,-1.699 0.477,-3.246 1.172,-4.679 l -66.203,-0.121 c 2.91,7.484 6.153,14.8 9.731,21.929 z m -41.766,38.078 c 7.497,11.238 15.86,21.844 24.985,31.735 4.601,-16.231 14.676,-30.817 27.91,-41.278 -1.82,-1.109 -3.395,-2.664 -4.223,-4.804 -0.527,-1.368 -0.699,-2.77 -0.629,-4.141 z m -23.792,-84.894 c 0,0 31.664,5.902 66.125,12.324 -0.262,-1.781 -0.247,-3.617 0.453,-5.422 0.457,-1.18 1.179,-2.16 1.961,-3.066 L 130.84,399.453 c -9.106,-5.562 -11.738,-16.742 -6.485,-25.234 2.54,-4.106 6.536,-6.981 11.243,-8.09 4.707,-1.113 9.566,-0.313 13.679,2.226 l 57.227,35.372 c 0.394,-1.758 1.07,-3.469 2.375,-4.895 0.848,-0.937 1.879,-1.59 2.934,-2.152 l -51.594,-47.157 c -6.481,-8.476 -4.903,-19.855 3.051,-25.875 7.964,-6.031 19.351,-4.449 25.378,3.516 l 41.059,54.258 c 0.945,-1.488 2.145,-2.828 3.84,-3.672 0.902,-0.449 1.851,-0.598 2.797,-0.758 0.203,-0.14 0.39,-0.301 0.59,-0.445 l -28.61,-57.609 c -2.91,-9.954 2.5,-19.696 11.813,-22.36 9.312,-2.652 19.047,2.758 21.711,12.067 l 16.511,57.746 c 7.106,-2.121 14.621,-3.301 22.411,-3.301 6.339,0 10.503,0.531 16.41,1.965 -0.055,-10.43 -0.11,-20.336 -0.114,-21.262 -1.386,-1.504 -52.472,-57.008 -52.472,-57.008 -8.996,-7.387 -12.258,-7.769 -18.106,-1.93 l -1.699,1.704 -15.961,-12.532 2.164,-2.164 c 6.012,-6.019 11.672,-10.156 19.324,-10.89 -11.101,-5.852 -20.57,-10.836 -22.23,-11.711 -1.723,1.789 -9.996,10.351 -14.359,14.879 -0.657,11.367 -10.028,20.445 -21.559,20.445 -11.949,0 -21.672,-9.723 -21.672,-21.672 v -1.121 l 8.305,-8.301 v 6.551 c 0,1.465 0.562,2.844 1.594,3.871 2.132,2.125 5.613,2.125 7.746,-0.004 0,0 6.39,-6.945 10.644,-11.57 l -0.047,-0.055 1.715,-1.762 c 1.207,-1.316 2.043,-2.218 2.043,-2.218 l 0.055,0.07 4.812,-4.945 -6.23,0.008 c -4.113,3.402 -9.223,5.222 -14.602,5.007 -5.789,-0.226 -11.14,-2.691 -15.07,-6.953 -2.848,-3.09 -4.664,-6.851 -5.375,-10.89 -23.934,38.914 -37.766,84.675 -37.766,133.621 0,20.535 2.5,40.484 7.09,59.636 3.188,-2.742 7.309,-3.769 12.028,-2.886 z m 29.5,-201.856 c 0,1.59 0.64,3.301 1.839,4.559 1.246,1.387 2.953,2.179 4.813,2.246 l 15.586,-0.027 c -7.789,-1.79 -14.504,-6.895 -18.196,-14.2 -1.91,2.762 -3.839,5.899 -4.042,7.207 0,0.078 0,0.145 0,0.215 z m 19.847,-22.746 c 0.34,1.422 1.199,2.621 2.434,3.399 l 32.676,18.457 9.144,-9.399 -0.133,-0.105 2.254,-2.067 1.68,-1.73 0.101,0.09 11.668,-10.723 c 2.039,-2.055 2.039,-5.527 -0.093,-7.66 -1.032,-1.028 -2.411,-1.598 -3.871,-1.598 h -6.559 l 8.309,-8.297 h 1.125 c 5.785,-0.004 11.222,2.25 15.32,6.344 4.094,4.09 6.348,9.531 6.348,15.32 0,11.524 -9.063,20.891 -20.418,21.555 -2.551,2.547 -6.2,6.191 -8.008,8 5.199,3.297 95.75,60.758 104.183,66.106 -2.84,-31.665 -30.164,-68.844 -55.941,-91.114 -11.801,-11.797 -16.328,-24.961 -16.328,-36.367 0,-10.062 3.527,-18.762 8.703,-23.934 4.535,-4.539 11.445,-5.894 17.191,-3.371 l 3.633,1.598 -2.805,2.809 c -4.57,4.57 -6.199,12.539 -6.199,18.468 0,11.926 3.078,17.977 8.836,24.231 1.219,-1.223 3.781,-3.785 7.383,-7.383 -2.438,-6.59 -3.609,-13.234 -3.609,-19.59 0,-12.734 4.496,-24.289 11.937,-31.722 1.555,-1.555 18.047,-15.243 24.981,-12.907 l 4.964,1.668 -4.226,3.098 c -2.422,1.773 -10.227,10.863 -12.871,16.41 -2.117,4.434 -3.379,9.758 -3.379,15.375 0,9.07 3.707,19.566 11.902,27.766 0.438,0.64 18.508,45.226 27.727,66.718 0.004,-0.496 0.015,-4.222 0.015,-4.222 0.059,-5.055 0.114,-10.067 0.114,-14.969 0,-25.941 -1.575,-48.984 -12.985,-60.395 -7.09,-7.089 -20.273,-10.839 -20.273,-10.839 l 3.418,-4.024 c 0.332,-0.375 5.812,-8.828 14.68,-9.117 2.117,-0.066 3.781,1.359 5.621,2.223 0.464,-20.317 4.293,-28.285 11.125,-35.953 -68.168,2.023 -129.727,30.777 -174.489,76.187 l -4.597,7.543 c -0.547,0.875 -0.828,1.867 -0.828,2.871 0,0.414 0.05,0.836 0.14,1.25 z m 137.192,363.457 6.16,10.481 H 294.68 l 2.976,10.882 c 0,5.25 -4.25,9.508 -9.504,9.508 -1.273,0 -2.484,-0.269 -3.589,-0.726 0.207,0.961 0.347,1.863 0.347,2.562 0,3.457 -2.801,6.258 -6.258,6.258 -3.457,0 -6.269,-2.801 -6.269,-6.258 0,-0.699 0.14,-1.601 0.351,-2.558 -1.109,0.453 -2.312,0.722 -3.586,0.722 -5.253,0 -9.5,-4.258 -9.5,-9.508 l 2.969,-10.882 h -6.711 c -4.605,0 -8.445,-3.282 -9.312,-7.629 -1.399,0.402 -2.864,0.636 -4.375,0.636 -8.633,0 -15.625,-6.996 -15.625,-15.625 0,-2.695 0.691,-5.234 1.883,-7.441 2.644,4.871 7.8,8.188 13.73,8.188 5.32,0 10.012,-2.661 12.832,-6.723 0.332,-0.477 0.637,-0.961 0.906,-1.465 0.813,-1.5 1.274,-3.18 1.555,-4.918 h -31.602 c -8.632,0 -15.625,6.996 -15.625,15.621 v -3.262 -3.546 -3.262 c 0,-8.625 6.993,-15.625 15.625,-15.625 h 29.954 c -2.668,-4.785 -7.766,-8.028 -13.645,-8.028 -0.305,0 -0.605,0.032 -0.918,0.051 2.82,-4.086 7.527,-6.769 12.871,-6.769 6.668,0 12.356,4.195 14.59,10.09 h 42.313 c 8.625,0 15.625,-6.993 15.625,-15.622 0,-4.007 0.023,-9.667 -3.985,-13.949 l -3.894,-5.855 -26.657,-41.133 c -4.863,-7.141 -14.578,-8.973 -21.718,-4.102 -7.118,4.856 -8.993,14.868 -4.129,21.997 6.199,3.453 8.633,10.589 7.472,18.007 -1.433,9.192 -9.824,15.504 -18.964,14.571 l -5.25,0.129 c -33.418,0 -58.375,22.593 -61.829,54.617 35.27,33.652 80.098,57.332 129.946,66.523 l -3.703,-23.125 33.968,27.582 11.457,-29.465 V 545.156 Z M 364.219,21.7188 c -188.86,0 -342.5002,153.6522 -342.5002,342.5042 0,167.082 120.2732,306.515 278.7732,336.476 l 4.774,-5.879 -41.157,-15.699 41.133,-15.738 -27.781,-34.18 43.484,6.945 -1.437,-8.98 C 193.645,605.836 97.4609,496.074 97.4609,364.223 c 0,-147.09 119.6681,-266.7621 266.7581,-266.7621 147.09,0 266.758,119.6721 266.758,266.7621 0,131.777 -96.067,241.48 -221.829,262.91 l -1.183,8.812 42.355,-6.789 -26.648,34.614 40.039,15.293 -40.496,16.507 4.234,5.223 c 158.735,-29.762 279.27,-169.313 279.27,-336.57 0,-188.852 -153.649,-342.5042 -342.5,-342.5042"
         style="fill:#231f20;fill-opacity:1;fill-rule:nonzero;stroke:none"
         id="path906" /><path
         d="m 955.797,435.063 c -78.918,0 -96.703,45.242 -96.703,95.55 v 171.989 h 48.168 V 533.734 c 0,-33.148 10.371,-56.546 51.871,-56.546 37.051,0 52.607,16.378 52.607,61.226 v 164.188 h 47.8 V 541.531 c 0,-71.754 -37.8,-106.468 -103.743,-106.468"
         style="fill:#231f20;fill-opacity:1;fill-rule:nonzero;stroke:none"
         id="path908" /><path
         d="m 1253.24,439.355 c 0,0 -94.41,172.379 -101.82,189.536 1.48,-22.618 2.22,-63.957 2.22,-95.547 v -93.989 h -46.68 v 263.247 h 61.2 c 0,0 92.56,-167.7 101.82,-187.586 -1.86,26.515 -2.59,73.32 -2.59,105.687 v 81.899 h 46.68 V 439.355 h -60.83"
         style="fill:#231f20;fill-opacity:1;fill-rule:nonzero;stroke:none"
         id="path910" /><path
         d="m 1370.75,439.355 h 48.1719 V 702.601 H 1370.75 Z"
         style="fill:#231f20;fill-opacity:1;fill-rule:nonzero;stroke:none"
         id="path912" /><path
         d="m 1592.25,439.355 h -55.58 l -87.06,263.247 h 52.61 l 48.54,-154.047 c 4.81,-14.821 10.37,-32.367 14.82,-51.481 h 0.74 c 3.7,17.942 7.77,32.371 14.81,54.602 l 49.28,150.926 h 49.28 l -87.44,-263.247"
         style="fill:#231f20;fill-opacity:1;fill-rule:nonzero;stroke:none"
         id="path914" /><path
         d="m 1712.56,439.355 v 263.247 h 137.41 v -42.508 h -88.74 v -64.742 h 84.25 v -41.336 h -84.25 v -71.368 h 88.74 v -43.293 h -137.41"
         style="fill:#231f20;fill-opacity:1;fill-rule:nonzero;stroke:none"
         id="path916" /><path
         d="m 2021.78,439.355 -69.65,108.809 h -1.86 V 439.355 h -48.16 v 263.247 c 19.64,1.171 42.98,1.558 71.87,1.558 55.21,0 90.78,-20.277 90.78,-74.097 0,-38.997 -25.93,-67.079 -63.72,-73.321 7.04,-9.75 14.07,-19.887 20.37,-28.855 l 60.03,-88.532 z m -52.61,223.465 c -7.04,0 -14.08,-0.386 -18.9,-1.164 v -76.051 c 3.33,-0.39 10,-0.781 17.42,-0.781 28.89,0 46.69,15.602 46.69,40.172 0,25.348 -14.83,37.824 -45.21,37.824"
         style="fill:#231f20;fill-opacity:1;fill-rule:nonzero;stroke:none"
         id="path918" /><path
         d="m 2162.86,435.063 c -17.78,0 -35.57,1.953 -51.13,6.242 l 2.97,47.191 c 14.08,-5.074 34.08,-9.359 52.23,-9.359 24.46,0 43.35,10.527 43.35,34.707 0,50.312 -104.85,27.301 -104.85,113.883 0,46.796 35.2,79.168 95.22,79.168 14.09,0 30.39,-1.954 45.21,-4.684 l -2.6,-44.457 c -14.08,4.285 -29.64,7.023 -44.83,7.023 -27.79,0 -41.87,-13.261 -41.87,-31.984 0,-47.188 105.23,-29.641 105.23,-111.93 0,-49.531 -37.42,-85.8 -98.93,-85.8"
         style="fill:#231f20;fill-opacity:1;fill-rule:nonzero;stroke:none"
         id="path920" /><path
         d="m 2300.68,439.355 h 48.1719 V 702.601 H 2300.68 Z"
         style="fill:#231f20;fill-opacity:1;fill-rule:nonzero;stroke:none"
         id="path922" /><path
         d="M 2494.82,659.313 V 439.355 h -48.17 v 219.958 h -64.83 v 43.289 h 177.84 v -43.289 h -64.84"
         style="fill:#231f20;fill-opacity:1;fill-rule:nonzero;stroke:none"
         id="path924" /><path
         d="m 2597.7,439.355 v 263.247 h 143.13 v -42.508 h -92.43 v -64.742 h 87.74 v -41.336 h -87.74 v -71.368 h 92.43 v -43.293 z m 53.42,280.407 -17.16,28.472 68.26,42.899 20.67,-34.32 -71.77,-37.051"
         style="fill:#231f20;fill-opacity:1;fill-rule:nonzero;stroke:none"
         id="path926" /><path
         d="m 933.777,17.793 c -27.297,0 -51.086,1.1718 -73.316,1.9531 V 282.211 c 20.668,0.781 52.648,1.949 85.019,1.949 81.51,0 133.38,-36.269 133.38,-128.695 0,-90.4845 -59.28,-137.672 -145.083,-137.672 z m 8.192,223.863 c -11.699,0 -22.621,-0.39 -30.813,-1.172 V 63.0352 c 7.024,-1.1719 17.551,-1.9493 27.692,-1.9493 49.531,0 85.412,28.0743 85.412,90.4771 0,56.55 -22.23,90.093 -82.291,90.093"
         style="fill:#231f20;fill-opacity:1;fill-rule:nonzero;stroke:none"
         id="path928" /><path
         d="M 1113.17,19.3555 V 282.602 h 143.13 v -42.508 h -92.42 v -64.742 h 87.75 v -41.336 h -87.75 V 62.6484 h 92.42 V 19.3555 h -143.13"
         style="fill:#231f20;fill-opacity:1;fill-rule:nonzero;stroke:none"
         id="path930" /><path
         d="m 1619.38,228.004 c -21.05,8.187 -45.23,13.262 -69.8,13.262 -51.87,0 -89.31,-32.758 -89.31,-91.653 0,-55.7653 30.42,-88.5271 83.85,-88.5271 12.48,0 23.4,1.5625 33.54,4.6758 V 157.41 h 50.7 V 31.8359 c -26.13,-10.5273 -58.51,-16.375 -90.09,-16.375 -83.46,0 -132.99,49.1407 -132.99,129.4731 0,82.679 56.16,141.57 147.42,141.57 26.13,0 51.87,-4.684 74.49,-11.313 l -7.81,-47.187"
         style="fill:#231f20;fill-opacity:1;fill-rule:nonzero;stroke:none"
         id="path932" /><path
         d="M 1682.18,19.3555 V 282.602 h 143.12 v -42.508 h -92.43 v -64.742 h 87.75 v -41.336 h -87.75 V 62.6484 h 92.43 V 19.3555 h -143.12"
         style="fill:#231f20;fill-opacity:1;fill-rule:nonzero;stroke:none"
         id="path934" /><path
         d="m 2031.86,19.3555 c 0,0 -99.31,172.3785 -107.1,189.5355 1.55,-22.618 2.33,-63.957 2.33,-95.547 V 19.3555 h -49.14 V 282.602 h 64.5 c 0,0 97.35,-167.7 107.1,-187.5825 -1.95,26.5115 -2.73,73.3165 -2.73,105.6835 v 81.899 h 49.14 V 19.3555 h -64.1"
         style="fill:#231f20;fill-opacity:1;fill-rule:nonzero;stroke:none"
         id="path936" /><path
         d="M 2148.61,19.3555 V 282.602 h 143.13 v -42.508 h -92.43 v -64.742 h 87.75 v -41.336 h -87.75 V 62.6484 h 92.43 V 19.3555 Z m 86.97,280.0155 -71.76,37.051 21.45,34.711 67.85,-42.899 -17.54,-28.863"
         style="fill:#231f20;fill-opacity:1;fill-rule:nonzero;stroke:none"
         id="path938" /><path
         d="m 2473.09,19.3555 h -58.5 l -91.65,263.2465 h 55.38 l 51.08,-154.047 c 5.07,-14.821 10.92,-32.3714 15.61,-51.4847 h 0.78 c 3.9,17.9492 8.18,32.3747 15.6,54.6057 l 51.86,150.926 h 51.88 L 2473.09,19.3555"
         style="fill:#231f20;fill-opacity:1;fill-rule:nonzero;stroke:none"
         id="path940" /><path
         d="M 2598.27,19.3555 V 282.602 h 143.14 v -42.508 h -92.44 v -64.742 h 87.75 v -41.336 h -87.75 V 62.6484 h 92.44 V 19.3555 h -143.14"
         style="fill:#231f20;fill-opacity:1;fill-rule:nonzero;stroke:none"
         id="path942" /></g></g></svg>
